<?xml version="1.0" encoding="utf-8"?>
<!-- Generator: Adobe Illustrator 22.0.0, SVG Export Plug-In . SVG Version: 6.00 Build 0)  -->
<svg version="1.1" id="Layer_1" xmlns="http://www.w3.org/2000/svg" xmlns:xlink="http://www.w3.org/1999/xlink" x="0px" y="0px"
	 viewBox="0 0 287 288.1" style="enable-background:new 0 0 287 288.1;" xml:space="preserve">
<style type="text/css">
	.st0{fill:#31612D;}
	.st1{opacity:0.82;fill:url(#SVGID_1_);enable-background:new    ;}
	.st2{fill:none;stroke:#31612D;stroke-width:6.775;}
	.st3{clip-path:url(#SVGID_2_);fill:#31612D;}
	.st4{clip-path:url(#SVGID_3_);fill:#31612D;}
	.st5{fill:#FFFFFF;stroke:#FFFFFF;stroke-width:0.4839;}
</style>
<g>
	<path class="st0" d="M143.4,51.1c-51.2,0-92.8,41.5-92.8,92.8c0,51.2,41.5,92.8,92.8,92.8s92.8-41.5,92.8-92.8
		C236.2,92.6,194.7,51.1,143.4,51.1z M206.3,115.5c-1,3.4-4.4,6-9.6,4.2c-5.2-1.8-12.6-6.4-12.6-6.4l-2.6,0.2l-1,0.8
		c0,0,2.5,3.8,2.7,5.3c0.2,1.5,0.3,3.6,0.3,3.6s3.3,4.2,3.9,5.9c0.6,1.7,0.9,5.6,0.9,5.6s3.1,4.1,3.8,7.3c0.7,3.1,0.1,11.1,0.1,11.1
		s1.2,4.8,1,8.1c-0.2,3.3-2.4,10.2-2.4,10.2s0.6,4.8,0,7.2c-0.6,2.4-2.5,7.8-2.5,7.8s5.7,0.9,7.3,4.3c1.6,3.4,5.4,12.6,2.5,14.3
		c-2.8,1.8-11.4,1.6-15.5-1.6c-4.2-3.3-4.2-3.3-4.2-3.3s-2.2,3.3-7.3,5.1c-5.1,1.8-7.5,1.6-7.5,1.6s-3.6,2.8-6.1,4
		c-2.5,1.2-5.5,2.5-5.5,2.5s0.2,6.6-2.1,9.3c-2.2,2.7-6.6,3.1-6.6,3.1s-4.4-0.4-6.6-3.1c-2.2-2.7-2.1-9.3-2.1-9.3s-3-1.3-5.5-2.5
		c-2.5-1.2-6.1-4-6.1-4s-2.4,0.1-7.5-1.6c-5.1-1.8-7.3-5.1-7.3-5.1s0,0-4.2,3.3c-4.2,3.3-12.7,3.4-15.5,1.6
		c-2.8-1.8,0.9-10.9,2.5-14.3c1.6-3.4,7.3-4.3,7.3-4.3s-1.9-5.4-2.5-7.8c-0.6-2.4,0-7.2,0-7.2s-2.2-6.9-2.4-10.2
		c-0.2-3.3,1-8.1,1-8.1s-0.6-7.9,0.2-11.1c0.7-3.1,3.8-7.3,3.8-7.3s0.3-3.9,0.9-5.6c0.6-1.7,3.9-5.9,3.9-5.9s0.1-2.1,0.3-3.6
		c0.2-1.5,2.7-5.3,2.7-5.3l-1-0.8l-2.6-0.2c0,0-7.4,4.6-12.6,6.4c-5.2,1.8-8.6-0.8-9.6-4.2c-1-3.4,2-7.4,2-7.4s5-4.4,8.2-6.8
		c3.2-2.4,14-4.4,17.7-4.4c3.8,0,14.5,3,15.1,3.2c0.6,0.2,3.8-1.6,4.6-2c0.8-0.4,6.2-3.2,6.2-3.2s0.4-1.4,0.4-2c0-0.6-2.2-2.2-4-5.6
		c-1.8-3.4-1-6.8-1.2-9.2c-0.2-2.4,2.6-7.2,5.2-12c2.6-4.8,8.7-4.2,8.7-4.2s6.1-0.6,8.7,4.2c2.6,4.8,5.4,9.6,5.2,12
		c-0.2,2.4,0.6,5.8-1.2,9.2c-1.8,3.4-4,5-4,5.6c0,0.6,0.4,2,0.4,2s5.4,2.8,6.2,3.2c0.8,0.4,4,2.2,4.6,2c0.6-0.2,11.4-3.2,15.1-3.2
		s14.5,2,17.7,4.4c3.2,2.4,8.2,6.8,8.2,6.8S207.3,112.2,206.3,115.5z"/>
	<path class="st0" d="M201.4,244.5c-1.4-5.7-3.3-10.8-4.4-16.7c-1.6,0.6-3,2-4.4,2.9c-20,13.5-62.6,15.5-87.5,5.4
		c-2.4-1-7.7-3.3-8.8-4.4c-1.7-1.6-4.7-3.7-6.4-4.4c-1.5,6-2.3,12.7-4.9,17.7c-4.9,0.5-10.2,0.6-14.7,1.5c-0.5,1.2,3,2.7,3.9,3.4
		c0.6,0.5,0.9,1,1.5,1.5c1.9,1.4,3.8,2.4,5.4,3.4c5.3,3.3,10.9,6.3,17.2,8.8c11.2,4.5,24.8,6.8,38.8,7.4c3.4,0.2,6.9,0.2,10.3,0
		c22.1-1,41.5-6.8,56-14.7c2.4-1.3,5.2-2.8,7.4-4.4c1.1-0.8,1.9-2.1,2.9-2.9c0.5-0.4,1.4-0.4,2-1c0.5-0.5,1-1.1,1-2
		C211.5,245.5,205.9,245.6,201.4,244.5z"/>
	
		<radialGradient id="SVGID_1_" cx="143.438" cy="143.8922" r="92.7828" gradientTransform="matrix(1 0 0 -1 0 287.7765)" gradientUnits="userSpaceOnUse">
		<stop  offset="0" style="stop-color:#FFFFFF"/>
		<stop  offset="1" style="stop-color:#31612D"/>
	</radialGradient>
	<path class="st1" d="M236.2,143.9c0,51.2-41.5,92.8-92.8,92.8s-92.8-41.5-92.8-92.8c0-51.2,41.5-92.8,92.8-92.8
		S236.2,92.6,236.2,143.9z"/>
	<circle class="st2" cx="143.4" cy="143.9" r="138.1"/>
	<g>
		<g>
			<defs>
				<path id="SVGID_7_" d="M83.1,240.7l-1.1-0.6l-14.3,4l-8.2,2.8l-29-21.5L9.2,173.4v-46.2l5.3-28.1l12.6-17.8l19.8-5l13.1,14.5
					l-7.7,21.3L47,131.6l1.7,36.1l7,13.6l13.5,22.7c0,0,17.1,17.1,18.4,18S83.1,240.7,83.1,240.7z"/>
			</defs>
			<clipPath id="SVGID_2_">
				<use xlink:href="#SVGID_7_"  style="overflow:visible;"/>
			</clipPath>
			<path class="st3" d="M114.4,245.6c-0.5-1.2-1.6-1.3-2.8-1.1c-4.8-1.6-6.8-9.7-8-17.5c4.1,2.3,13.1,9.1,10.1,17
				c2.6,3,11.3,1.7,10.8-3.4c2.1,2.7,1.8,7.3,3.1,11.7c-1.3-1.3-2-3.4-3.5-4.2c-2.3,0.6-4.3,0.6-6.3,0.5c5.3,9.2-7.3,12.1-4.1,22.9
				c-5.5-9.9,6.2-14.9,0.6-23.4c-3.2,0.1-6.7-0.4-9.9,1.3c1.6,9.5-6.4,11.3-14.1,13.6c1.2-5.2,5.5-17.7,13.7-13.7
				c0.7-0.5,1.6-0.9,2.3-1.3c-6.4-0.4-11.1-4.4-18.7-2.6c0.7,8.3-9.7,9.6-16.4,9.3c1.8-4.9,9.4-15.8,16.2-9.6
				c0.6-0.5,1.7-0.5,2.6-0.8c-6.3-2.2-10.9-7.6-18.5-7.2c-0.7,8.5-12.9,6.5-17.9,4.8c2.8-4.4,12.8-12.8,17.6-5.3
				c1-0.2,1.8,0,2.8-0.4c-5.9-3.2-9.9-10-16.9-11.1c-3.3,8.4-14.1,2.8-18.9,0.2c4.2-3.7,15.7-9,18.6-0.7c1-0.1,1.7,0.4,2.8,0.2
				c-5-4.6-8.6-12-14.5-15c-5.7,7.2-14.4-1-18.8-5.5c7.5-1.7,16.1-3.9,18.7,4.9c0.6,0.6,1.5,0.7,2.3,1c-4.1-5.6-6.7-14.2-11.9-17.9
				c-7,5.2-13.3-4.2-17.5-10c6.6,0.5,14.7-0.7,17.3,6.5c0.8,2.4,0.4,4.3,2.7,4.6c-3.4-6.2-4.7-16.3-9-20.6
				c-7.7,3.4-12-6.9-15.6-14.4c6.4,1.9,15.6,3.7,15.8,13.9c0.5,1.1,1.3,1.7,2.1,2.3c-2.5-7.9-1.4-16.5-5.2-21.9
				c-7.4,1.4-10.4-8.3-12.9-17.7c5.3,2.8,15.1,7.4,13.1,17.2c0.5,1,1.1,1.8,1.6,2.8c-0.7-7.7,1.9-15-1.3-23.2
				c-7.1,0.4-9.1-12.5-9.3-20.5c4.6,3.2,13.8,12.3,9.6,20.1c0.5,1.3,1.1,2.2,1.5,3.6c0.5-7.7,4.4-12.8,2.5-22.3
				c-7.6-0.8-7.5-15.5-6.4-21.8c4,4.1,11.7,15.3,6.8,21.5c0.2,1.3,0.6,2.1,0.9,3.2c2-5,3.6-10.3,6-14.9c-4.7-9.2,3.1-15.2,7.5-19.9
				c0.6,8.1,1.1,19.2-6.8,20.1c-1.8,3.7-3.5,7.5-4.7,11.7c0.8,0.1,1.6-1.2,2.6-1.4c-0.4-8,10.4-7.9,15.6-6.6
				c-2.6,4.3-9.8,12.5-15.4,6.9c-5.3,2.6-5.1,9.6-6.3,15.4c0.7,0.4,0.9-1,1.6-1.2c-0.6-8,10.5-7.5,15.5-6.3
				c-2.6,4-9.9,12.6-15.4,6.7c-3.9,4.2-2.7,12.4-3,19.5c0.5,0.3,0.7-0.9,1.3-1.1c-1.6-8,7.5-9.5,13.7-9.7
				c-1.3,4.1-6.8,14.4-13.5,10.1c-3.4,4-0.4,13,0.1,20.1c1.3-0.4,0.8-1.7,0.3-3.2c0.7-6.4,6.5-8.8,13-10.6
				c-1.9,5.6-4.3,15.4-12.1,13.1c-2.2,4.5,2.2,13.5,3.5,19.1c1.5-0.8,0.2-2.1,0-3.3c-1.1-6.9,6.1-10.4,11.1-13.1
				c-1.2,6.4-2,16.4-9.9,15.4c-0.9,6.2,4.3,13.6,7,18.3c-3.9-9,2.4-14.6,7.3-18.8c0.1,7.6,0.5,17.1-6.8,17.8
				c1.3,7.4,6.6,11.9,10.2,16.6c-5.2-7.9-0.2-15.9,3.7-20.7c1.6,8.6,3.2,17.3-3.5,19.4c2.9,7.3,8.2,10.1,12.9,13.9
				c-6.5-5.8-3-17.1,0-21.3c2.7,6.5,5.9,17.7,0.1,19.9c3.3,6.6,9.3,7.9,14.4,10.8c-6.4-3.5-6.1-16.1-3.5-21.4
				c2.8,4.6,9.1,16.2,3.3,19.8c3.7,5.7,10.5,5.6,16.1,7.5c-0.6-2.3-1.8-1.3-3-1.9c-5-2.5-4.7-13.3-4.6-18.7
				c3.8,3.1,11.3,12.5,7.2,18.7C101.7,246.8,108.7,245,114.4,245.6z"/>
		</g>
	</g>
	<g>
		<g>
			<defs>
				<path id="SVGID_9_" d="M202.9,239.8l1.1-0.6l14.3,4l8.2,2.8l29-21.5l21.3-51.9v-46.2l-5.3-28.1l-12.6-17.8l-19.8-5L225.9,90
					l7.7,21.3l5.3,19.4l-1.7,36.1l-7,13.5L216.7,203c0,0-17.1,17.1-18.4,18C197.2,221.9,202.9,239.8,202.9,239.8z"/>
			</defs>
			<clipPath id="SVGID_3_">
				<use xlink:href="#SVGID_9_"  style="overflow:visible;"/>
			</clipPath>
			<path class="st4" d="M171.5,244.6c0.5-1.2,1.6-1.3,2.8-1.1c4.8-1.6,6.8-9.7,8-17.5c-4.1,2.3-13.1,9.1-10.1,17
				c-2.6,3-11.3,1.7-10.8-3.4c-2.1,2.7-1.8,7.3-3.1,11.7c1.2-1.3,2-3.4,3.5-4.3c2.3,0.6,4.3,0.6,6.3,0.5c-5.3,9.2,7.3,12.1,4.1,22.9
				c5.5-9.9-6.2-14.9-0.6-23.4c3.2,0.1,6.6-0.4,9.9,1.3c-1.6,9.5,6.4,11.3,14.1,13.6c-1.3-5.2-5.5-17.7-13.7-13.7
				c-0.7-0.5-1.6-0.9-2.3-1.3c6.4-0.4,11.1-4.4,18.7-2.6c-0.7,8.3,9.7,9.6,16.4,9.3c-1.8-4.9-9.4-15.8-16.2-9.6
				c-0.6-0.5-1.7-0.5-2.6-0.8c6.2-2.2,10.9-7.6,18.5-7.2c0.7,8.5,12.9,6.5,17.9,4.8c-2.8-4.4-12.8-12.8-17.6-5.3
				c-1-0.2-1.8,0-2.8-0.4c5.9-3.2,9.9-10,16.9-11.1c3.3,8.4,14.1,2.8,18.9,0.2c-4.2-3.7-15.7-9-18.6-0.7c-1-0.1-1.7,0.4-2.8,0.2
				c5-4.6,8.6-12,14.5-15c5.7,7.2,14.4-1,18.8-5.5c-7.5-1.7-16.1-3.9-18.7,4.9c-0.6,0.6-1.5,0.7-2.3,1c4.1-5.6,6.7-14.2,11.9-17.9
				c6.9,5.2,13.3-4.2,17.5-10c-6.6,0.5-14.7-0.7-17.3,6.5c-0.8,2.4-0.4,4.3-2.7,4.6c3.4-6.2,4.7-16.3,9-20.6
				c7.7,3.4,12-6.9,15.6-14.4c-6.4,1.9-15.6,3.7-15.8,13.9c-0.5,1.1-1.2,1.7-2.1,2.3c2.5-7.9,1.4-16.5,5.2-21.9
				c7.4,1.4,10.4-8.3,12.9-17.7c-5.3,2.8-15.1,7.4-13.1,17.2c-0.5,1-1.1,1.8-1.6,2.8c0.7-7.7-1.9-15,1.3-23.2
				c7.1,0.4,9.1-12.5,9.3-20.5c-4.6,3.2-13.8,12.3-9.6,20.1c-0.5,1.3-1.1,2.2-1.5,3.7c-0.5-7.7-4.4-12.8-2.5-22.3
				c7.6-0.8,7.5-15.5,6.4-21.8c-4,4.1-11.7,15.3-6.8,21.5c-0.2,1.3-0.6,2.1-0.9,3.2c-2-5-3.6-10.3-6-14.9c4.7-9.2-3.1-15.2-7.5-19.9
				c-0.6,8.1-1.1,19.2,6.8,20.1c1.8,3.7,3.5,7.5,4.7,11.7c-0.8,0.1-1.6-1.2-2.6-1.4c0.4-8-10.4-7.9-15.6-6.6
				c2.6,4.3,9.8,12.5,15.4,6.9c5.3,2.6,5.1,9.6,6.3,15.4c-0.7,0.4-0.9-1-1.6-1.2c0.6-8-10.6-7.5-15.5-6.3c2.6,4,9.9,12.6,15.4,6.7
				c3.9,4.2,2.7,12.4,3,19.5c-0.5,0.3-0.8-0.9-1.3-1.1c1.6-8-7.5-9.5-13.7-9.7c1.3,4.1,6.8,14.4,13.5,10.1c3.4,4,0.4,13-0.1,20.1
				c-1.3-0.4-0.8-1.7-0.3-3.2c-0.6-6.4-6.5-8.8-13-10.6c1.9,5.6,4.3,15.4,12.1,13.1c2.2,4.5-2.2,13.5-3.5,19.1
				c-1.5-0.8-0.2-2.1,0-3.3c1.1-6.8-6.1-10.4-11.1-13.1c1.2,6.4,2,16.4,9.9,15.4c0.9,6.2-4.3,13.6-7,18.3c3.9-9-2.4-14.6-7.3-18.8
				c-0.1,7.6-0.5,17.1,6.8,17.8c-1.3,7.4-6.6,11.9-10.2,16.6c5.2-7.9,0.2-15.9-3.7-20.7c-1.6,8.6-3.2,17.3,3.5,19.4
				c-2.9,7.3-8.2,10.1-12.9,13.9c6.5-5.8,3-17.1,0-21.3c-2.7,6.5-5.9,17.7-0.1,19.9c-3.3,6.6-9.3,7.9-14.4,10.8
				c6.4-3.5,6.1-16.1,3.5-21.4c-2.8,4.6-9.1,16.2-3.3,19.8c-3.7,5.7-10.5,5.6-16.1,7.5c0.6-2.3,1.8-1.3,3-1.9
				c5-2.5,4.7-13.3,4.6-18.7c-3.8,3.1-11.3,12.5-7.2,18.7C184.3,245.8,177.3,244,171.5,244.6z"/>
		</g>
	</g>
	<g>
		<g>
			<path class="st5" d="M96.2,245.7c0.8-1.6,0.9-1.9,1-2.2c0.1-0.4,0.1-0.6-0.2-0.8c-0.1-0.1-0.3-0.2-0.4-0.2
				c-0.1-0.1-0.2-0.1-0.1-0.2c0-0.1,0.1-0.1,0.3,0c0.6,0.3,1.3,0.6,1.5,0.7c0.4,0.2,1.2,0.5,1.6,0.7c0.7,0.3,1.4,0.7,1.9,1.4
				c0.2,0.3,0.5,1.1,0.2,1.8c-0.3,0.8-2.4,1.5-2.5,1.8c-0.2,0.4,1,2.9,1.4,3.9c0.4,0.9,0.9,1.2,1.1,1.3c0.1,0.1,0.2,0.1,0.3,0.2
				c0.1,0,0.1,0.1,0.1,0.1c0,0.1-0.1,0.1-0.3,0c-0.5-0.2-0.7-0.3-1.2-0.4c-0.7-0.3-1-0.5-1.2-0.7c-0.4-0.5-0.7-1.2-1-2.3
				c-0.2-0.8-0.4-1.8-0.5-2c0-0.1-0.1-0.1-0.2-0.2c-0.4-0.2-0.6-0.3-1-0.5c-0.1,0-0.1,0-0.1,0c0,0.1,0,0.1-0.1,0.1
				c-0.4,1-0.8,1.8-1,2.3c-0.1,0.3-0.1,0.6,0.2,0.8c0.2,0.1,0.4,0.2,0.6,0.3c0.1,0,0.1,0.1,0.1,0.2c0,0.1-0.1,0.1-0.3,0
				c-0.7-0.3-1.6-0.8-1.7-0.8c-0.2-0.1-1-0.4-1.5-0.7c-0.2-0.1-0.2-0.1-0.2-0.2c0-0.1,0.1-0.1,0.2,0c0.2,0.1,0.3,0.1,0.4,0.2
				c0.3,0.1,0.4-0.1,0.6-0.4c0.3-0.4,0.7-1.2,1.1-2.2C95.7,246.8,95.9,246.4,96.2,245.7z M97.2,247.2c-0.1,0.1,0,0.2,0,0.2
				c0.2,0.2,0.5,0.4,0.8,0.5c0.5,0.2,0.6,0.2,0.9,0.2c0.4-0.1,1-0.4,1.4-1.3c0.6-1.5-0.2-2.4-0.9-2.7c-0.3-0.1-0.5-0.2-0.6-0.2
				c-0.1,0-0.1,0-0.2,0.1C98.1,245.2,97.8,245.9,97.2,247.2z"/>
			<path class="st5" d="M103.2,249.8c0.7-1.9,2.9-3.7,6.3-2.5c2.8,1,4.2,3.1,3.4,5.6c-0.7,2.6-3.3,4-6.5,3
				C103,254.7,102.5,251.8,103.2,249.8z M111.2,252.8c0.8-2.5-0.3-4.5-2.1-5.1c-1.3-0.4-3.1-0.3-4.1,2.4c-0.8,2.3-0.1,4.6,2.3,5.4
				C108.1,255.8,110.2,256,111.2,252.8z"/>
			<path class="st5" d="M115.7,252.8c0.5-1.7,0.5-2,0.6-2.4c0.1-0.4,0-0.6-0.3-0.8c-0.1,0-0.3-0.1-0.4-0.2c-0.1,0-0.2-0.1-0.2-0.2
				c0-0.1,0.1-0.1,0.3,0c0.6,0.2,1.3,0.4,1.6,0.5c0.6,0.1,1,0.2,1.4,0.3c2.1,0.5,2.2,1.7,2.1,2.3c-0.2,0.9-1.7,1.7-1.7,1.7
				c0,0.1,2,1.6,1.7,2.9c-0.3,1.2-1.6,2.3-3.9,1.7c-0.2,0-0.5-0.1-0.9-0.3c-0.4-0.1-0.7-0.2-0.9-0.3c-0.1,0-0.4-0.1-0.7-0.2
				c-0.3-0.1-0.6-0.1-0.9-0.2c-0.2,0-0.2-0.1-0.2-0.2c0-0.1,0.1-0.1,0.2,0c0.2,0.1,0.3,0.1,0.5,0.1c0.3,0,0.4-0.2,0.5-0.5
				c0.2-0.4,0.4-1.3,0.7-2.4C115.4,254,115.5,253.6,115.7,252.8z M117.1,253.4c0,0.1,0,0.1,0.1,0.1c0.1,0.1,0.3,0.1,0.6,0.2
				c0.4,0.1,0.7,0.1,0.9,0c0.4-0.2,0.6-0.5,0.8-1.1c0.2-0.8-0.1-1.9-1.1-2.1c-0.2,0-0.3-0.1-0.4-0.1c-0.1,0-0.1,0-0.2,0.2
				C117.5,251.7,117.4,252.3,117.1,253.4z M118.5,254.7c-0.2-0.2-0.5-0.4-0.9-0.5c-0.2-0.1-0.3-0.1-0.5-0.1c0,0-0.1,0-0.1,0.1
				c-0.3,1.1-0.4,1.6-0.7,2.7c-0.2,0.7-0.2,0.9,0.2,1.2c0.3,0.2,0.6,0.3,0.9,0.4c0.6,0.1,1.6,0.1,1.8-1.1
				C119.3,256.5,119.3,255.5,118.5,254.7z"/>
			<path class="st5" d="M124,254.7c0.3-1.7,0.4-2.1,0.4-2.4c0-0.4,0-0.6-0.4-0.7c-0.1,0-0.3-0.1-0.5-0.1c-0.1,0-0.2-0.1-0.2-0.1
				c0-0.1,0.1-0.1,0.3-0.1c0.3,0.1,0.7,0.1,0.9,0.2c0.3,0.1,0.6,0.1,0.7,0.2c0.4,0.1,2.7,0.5,3,0.5s0.4,0,0.5,0c0.1,0,0.1,0,0.2,0
				c0.1,0,0.1,0.1,0.1,0.1c0,0.1-0.1,0.2-0.2,0.7c0,0.1-0.1,0.6-0.2,0.7c0,0.1-0.1,0.1-0.1,0.1c-0.1,0-0.1-0.1-0.1-0.2
				c0-0.1,0-0.3,0-0.4c-0.1-0.2-0.2-0.4-0.7-0.5c-0.2-0.1-1.4-0.3-1.7-0.3c-0.1,0-0.1,0-0.1,0.1c-0.2,1.2-0.3,1.7-0.5,2.9
				c0,0.1,0,0.1,0.1,0.1c0.3,0,1.7,0.3,2,0.3c0.3,0,0.5,0,0.6-0.1c0.1-0.1,0.2-0.1,0.2-0.1c0,0,0.1,0,0.1,0.1c0,0.1-0.1,0.3-0.2,0.8
				c0,0.2-0.2,0.7-0.2,0.8c0,0.1,0,0.2-0.1,0.2c-0.1,0-0.1-0.1-0.1-0.1c0-0.1,0-0.3,0-0.4c0-0.2-0.2-0.4-0.6-0.6
				c-0.2-0.1-1.4-0.3-1.7-0.3c-0.1,0-0.1,0-0.1,0.1c-0.1,0.4-0.1,0.5-0.2,0.9c-0.1,0.4-0.3,1.4-0.3,1.8c-0.1,0.8,0.1,1,1.4,1.2
				c0.3,0.1,0.9,0.1,1.2,0c0.4-0.1,0.5-0.3,0.7-0.8c0-0.1,0.1-0.2,0.2-0.2c0.1,0,0.1,0.1,0.1,0.2c0,0.3-0.2,1-0.3,1.3
				c-0.1,0.3-0.2,0.3-0.7,0.2c-1-0.1-1.7-0.3-2.2-0.4c-0.5-0.1-0.9-0.2-1.3-0.3c-0.1,0-0.4-0.1-0.7-0.1c-0.3,0-0.6-0.1-0.9-0.1
				c-0.2,0-0.2-0.1-0.2-0.2c0-0.1,0.1-0.1,0.2-0.1c0.2,0,0.3,0,0.5,0c0.3,0,0.4-0.2,0.5-0.6c0.2-0.5,0.3-1.4,0.5-2.4
				C123.8,255.9,123.9,255.5,124,254.7z"/>
			<path class="st5" d="M131.7,255.8c0.2-1.8,0.2-2.1,0.3-2.4c0-0.4-0.1-0.6-0.4-0.7c-0.1,0-0.3-0.1-0.5-0.1c-0.1,0-0.2,0-0.2-0.1
				c0-0.1,0.1-0.1,0.3-0.1c0.6,0.1,1.4,0.2,1.6,0.2c0.4,0,1.3,0.1,1.7,0.1c0.7,0.1,1.5,0.2,2.2,0.7c0.3,0.2,0.8,0.9,0.7,1.6
				c-0.1,0.9-1.7,2.2-1.8,2.5c-0.1,0.5,1.8,2.5,2.5,3.2c0.7,0.7,1.2,0.8,1.4,0.9c0.1,0,0.3,0,0.4,0c0.1,0,0.2,0,0.2,0.1
				c0,0.1-0.1,0.1-0.3,0.1c-0.5,0-0.7,0-1.2-0.1c-0.7,0-1-0.1-1.4-0.3c-0.5-0.3-1-0.9-1.6-1.8c-0.5-0.7-1-1.5-1.1-1.7
				c-0.1-0.1-0.1-0.1-0.2-0.1c-0.4,0-0.6-0.1-1.1-0.1c-0.1,0-0.1,0-0.1,0.1c0,0.1,0,0.1,0,0.2c-0.1,1.1-0.2,2-0.2,2.5
				c0,0.3,0.1,0.6,0.4,0.7c0.2,0,0.5,0.1,0.6,0.1c0.1,0,0.1,0,0.1,0.1c0,0.1-0.1,0.1-0.3,0.1c-0.7-0.1-1.7-0.2-1.9-0.2
				c-0.2,0-1.1-0.1-1.6-0.1c-0.2,0-0.3-0.1-0.2-0.2c0-0.1,0.1-0.1,0.2-0.1c0.2,0,0.3,0,0.5,0c0.3,0,0.4-0.3,0.4-0.6
				c0.1-0.5,0.2-1.4,0.3-2.5C131.6,257.1,131.6,256.6,131.7,255.8z M133.1,256.9c0,0.1,0,0.2,0.1,0.2c0.2,0.1,0.6,0.2,0.9,0.2
				c0.5,0,0.7,0,0.9-0.1c0.4-0.2,0.8-0.7,0.9-1.7c0.1-1.6-1-2.2-1.7-2.3c-0.3,0-0.5,0-0.6,0c-0.1,0-0.1,0.1-0.1,0.1
				C133.3,254.8,133.2,255.5,133.1,256.9z"/>
			<path class="st5" d="M142.2,253.8c-0.7,0-1.1,0-1.8,0c-0.7,0-1,0-1.2,0.3c-0.1,0.2-0.2,0.3-0.2,0.4c0,0.1-0.1,0.1-0.1,0.1
				c-0.1,0-0.1-0.1-0.1-0.2c0-0.2,0.3-1.2,0.3-1.3c0-0.1,0.1-0.2,0.2-0.2c0.1,0,0.2,0.1,0.5,0.2c0.3,0,0.8,0.1,1.2,0.1
				c1.9,0.1,2.8,0.1,4.7,0.1c0.4,0,0.7,0,0.8-0.1c0.2,0,0.3-0.1,0.3-0.1c0.1,0,0.1,0.1,0.1,0.2c0,0.2,0,1.1,0,1.4
				c0,0.1,0,0.2-0.1,0.2c-0.1,0-0.1-0.1-0.1-0.2c0-0.1,0-0.1,0-0.1c0-0.3-0.4-0.6-1.4-0.6c-0.6,0-0.9,0-1.5,0c0,1.9,0,2.9,0,4.8
				c0,1.1,0,2,0,2.5c0,0.3,0.1,0.6,0.5,0.6c0.2,0,0.5,0,0.7,0c0.1,0,0.2,0,0.2,0.1c0,0.1-0.1,0.1-0.2,0.1c-0.8,0-1.7,0-2,0
				c-0.3,0-1.1,0-1.6,0c-0.2,0-0.3,0-0.3-0.1c0-0.1,0.1-0.1,0.2-0.1c0.2,0,0.3,0,0.5,0c0.3,0,0.3-0.3,0.4-0.6
				c0.1-0.5,0.1-1.4,0.1-2.5C142.1,256.7,142.1,255.7,142.2,253.8z"/>
			<path class="st5" d="M147.7,257.5c-0.1-2,1.2-4.5,4.8-4.8c3-0.2,5,1.2,5.3,3.9c0.3,2.6-1.5,5-4.8,5.2
				C149.4,262.1,147.8,259.6,147.7,257.5z M156.1,257.2c-0.3-2.6-2-4-3.9-3.9c-1.4,0.1-2.9,0.9-2.8,3.8c0.1,2.4,1.7,4.3,4.1,4.1
				C154.4,261.2,156.5,260.6,156.1,257.2z"/>
			<path class="st5" d="M165,257.1c-0.1,0-0.1,0-0.1,0.1c-0.2,0.7-0.2,1.1-0.4,1.8c-0.1,0.3-0.1,0.6-0.1,0.7c0,0.2,0.2,0.3,0.6,0.3
				c0.1,0,0.1,0,0.2,0c0.2,0,0.2,0,0.2,0.1c0,0.1-0.1,0.1-0.2,0.2c-0.4,0.1-1,0.1-1.4,0.2c-0.1,0-0.8,0.2-1.5,0.3
				c-0.2,0-0.2,0-0.3-0.1c0-0.1,0-0.1,0.1-0.1c0.1,0,0.3-0.1,0.4-0.1c0.6-0.2,0.8-0.6,0.9-1.2c0.8-3.1,1.1-4.6,1.8-7.7
				c0.1-0.4,0.1-0.5,0.2-0.5c0.1,0,0.2,0.1,0.4,0.3c0.4,0.6,3.3,4.8,4.5,6.3c0.7,0.9,1.1,1,1.4,1c0.2,0,0.4,0,0.5-0.1
				c0.1,0,0.2,0,0.2,0c0,0.1-0.1,0.1-0.6,0.3c-0.5,0.1-1.4,0.3-2.4,0.5c-0.2,0-0.4,0.1-0.4,0c0-0.1,0-0.1,0.2-0.1
				c0.1,0,0.2-0.2,0.1-0.3c-0.6-0.9-0.9-1.3-1.5-2.2c0-0.1-0.1-0.1-0.1-0.1C166.6,256.8,166.1,256.9,165,257.1z M167.4,256.1
				C167.4,256.1,167.4,256,167.4,256.1c-0.6-1.1-1-1.6-1.6-2.7c0,0,0-0.1-0.1-0.1c0,0-0.1,0.1-0.1,0.1c-0.2,1.2-0.3,1.8-0.6,3
				c0,0,0,0.1,0.1,0.1C166,256.3,166.5,256.3,167.4,256.1z"/>
			<path class="st5" d="M172.5,253.1c-0.4-1.7-0.5-2-0.6-2.4c-0.1-0.4-0.3-0.5-0.7-0.5c-0.1,0-0.3,0-0.5,0.1c-0.1,0-0.2,0-0.2-0.1
				c0-0.1,0.1-0.1,0.2-0.2c0.6-0.2,1.4-0.3,1.6-0.4c0.4-0.1,1.3-0.4,1.6-0.5c0.7-0.2,1.5-0.4,2.3-0.1c0.4,0.1,1,0.5,1.3,1.3
				c0.3,0.8-0.9,2.6-0.8,3c0.1,0.5,2.6,1.7,3.5,2.1c0.9,0.4,1.4,0.3,1.6,0.3c0.1,0,0.3,0,0.4-0.1c0.1,0,0.2,0,0.2,0
				c0,0.1-0.1,0.1-0.2,0.2c-0.5,0.2-0.7,0.2-1.2,0.4c-0.7,0.2-1,0.3-1.4,0.2c-0.6-0.1-1.2-0.5-2.2-1.1c-0.7-0.5-1.5-1.1-1.7-1.2
				c-0.1,0-0.2,0-0.2,0c-0.4,0.1-0.6,0.2-1.1,0.3c-0.1,0-0.1,0.1-0.1,0.1c0,0.1,0,0.1,0,0.2c0.3,1,0.5,1.9,0.7,2.4
				c0.1,0.3,0.3,0.5,0.6,0.5c0.2,0,0.5-0.1,0.6-0.1c0.1,0,0.2,0,0.2,0.1c0,0.1-0.1,0.1-0.2,0.2c-0.7,0.2-1.7,0.4-1.9,0.5
				c-0.2,0.1-1,0.3-1.5,0.4c-0.2,0-0.3,0-0.3-0.1c0-0.1,0-0.1,0.2-0.1c0.2,0,0.3-0.1,0.4-0.2c0.2-0.1,0.2-0.4,0.2-0.7
				c-0.1-0.5-0.3-1.4-0.6-2.4C172.8,254.2,172.7,253.8,172.5,253.1z M174.2,253.6c0,0.1,0.1,0.2,0.2,0.2c0.3,0,0.6-0.1,0.9-0.1
				c0.5-0.1,0.6-0.2,0.8-0.4c0.3-0.4,0.5-1,0.2-1.9c-0.5-1.6-1.7-1.7-2.4-1.5c-0.3,0.1-0.5,0.1-0.6,0.2c-0.1,0-0.1,0.1-0.1,0.2
				C173.6,251.5,173.8,252.2,174.2,253.6z"/>
			<path class="st5" d="M183.6,251.8c0.5,1.4,0.8,2.2,1.1,2.3c0.3,0.1,0.6,0.1,1.6-0.3c0.6-0.2,1.1-0.4,1.3-0.9
				c0.1-0.2,0.1-0.6,0.1-0.8c0-0.1,0-0.2,0.1-0.2c0.1,0,0.1,0,0.2,0.1c0,0.1,0.3,1,0.3,1.3c0,0.3,0,0.3-0.7,0.6
				c-0.9,0.3-1.5,0.6-2.1,0.8c-0.6,0.2-1,0.3-1.5,0.5c-0.1,0-0.4,0.2-0.7,0.3c-0.3,0.1-0.6,0.2-0.8,0.3c-0.2,0.1-0.3,0-0.3,0
				c0-0.1,0-0.1,0.2-0.2c0.2-0.1,0.3-0.1,0.4-0.2c0.2-0.1,0.2-0.4,0.2-0.7c-0.1-0.5-0.4-1.4-0.7-2.4c-0.3-0.8-0.4-1.2-0.7-1.9
				c-0.6-1.7-0.7-2-0.8-2.3c-0.2-0.4-0.3-0.5-0.7-0.5c-0.1,0-0.2,0-0.4,0.1c-0.1,0-0.2,0-0.2,0s0-0.1,0.2-0.2
				c0.5-0.2,1.3-0.4,1.6-0.5c0.3-0.1,1.1-0.4,1.5-0.6c0.2-0.1,0.2-0.1,0.3,0s0,0.1-0.2,0.2c-0.1,0-0.3,0.1-0.4,0.2
				c-0.3,0.2-0.3,0.4-0.2,0.8c0.1,0.4,0.2,0.7,0.8,2.3C183.2,250.6,183.4,251,183.6,251.8z"/>
			<path class="st5" d="M188.4,244.7c-0.7,0.3-1,0.5-1.7,0.8c-0.6,0.3-0.9,0.5-1,0.8c0,0.2-0.1,0.4,0,0.5c0,0.1,0,0.2-0.1,0.2
				c-0.1,0-0.1,0-0.2-0.1c-0.1-0.2-0.2-1.2-0.3-1.3c0-0.2,0-0.2,0.1-0.3c0.1,0,0.2,0,0.5-0.1c0.3-0.1,0.8-0.3,1.1-0.4
				c1.8-0.7,2.7-1.1,4.4-2c0.4-0.2,0.6-0.3,0.7-0.4c0.1-0.1,0.2-0.2,0.3-0.2c0.1,0,0.1,0,0.2,0.2c0.1,0.2,0.4,1,0.6,1.2
				c0,0.1,0,0.2,0,0.2c-0.1,0-0.1,0-0.2-0.1c0,0,0-0.1-0.1-0.1c-0.2-0.3-0.6-0.4-1.6,0c-0.6,0.3-0.9,0.4-1.4,0.6
				c0.8,1.7,1.2,2.6,2,4.3c0.4,1,0.8,1.8,1.1,2.2c0.2,0.3,0.3,0.5,0.7,0.4c0.2-0.1,0.4-0.2,0.6-0.2c0.1-0.1,0.2-0.1,0.2,0
				c0,0.1,0,0.2-0.2,0.2c-0.8,0.4-1.6,0.7-1.9,0.8c-0.3,0.1-1,0.5-1.5,0.7c-0.2,0.1-0.3,0.1-0.3,0c0-0.1,0-0.1,0.2-0.2
				c0.2-0.1,0.3-0.2,0.4-0.2c0.2-0.1,0.2-0.4,0.1-0.7c-0.1-0.5-0.5-1.3-0.9-2.3C189.6,247.3,189.2,246.5,188.4,244.7z"/>
		</g>
	</g>
	<g>
		<path class="st0" d="M67,45.5c0.1-0.1,0.2-0.1,0.2,0l3.8,4.2c0.1,0.1,0.1,0.2,0,0.3l-1,0.9c-0.1,0.1-0.2,0.1-0.2,0l-3.3-2.6
			c-0.1-0.1-0.1-0.1-0.2,0l-6.2,5.5c-0.1,0.1-0.1,0.2,0,0.2l5.9,6.6c0.1,0.1,0.2,0.1,0.2,0l3.7-3.3c0.1-0.1,0.1-0.2,0-0.2l-1.7-2.4
			c-0.1-0.1,0-0.1,0-0.2l0.7-0.7c0.1-0.1,0.2-0.1,0.2,0l5.2,5.8c0.1,0.1,0.1,0.2,0,0.2l-0.7,0.7c-0.1,0.1-0.2,0.1-0.2,0l-2.3-2.1
			c-0.1-0.1-0.2-0.1-0.3,0l-3.7,3.3c-0.1,0.1-0.1,0.2,0,0.3l6.5,7.3c0.1,0.1,0.2,0.1,0.2,0l6.5-5.8c0.1-0.1,0.1-0.2,0.1-0.2
			l-2.1-3.5c-0.1-0.1,0-0.1,0-0.2l1-0.9c0.1-0.1,0.2-0.1,0.2,0l3.7,4.2c0.1,0.1,0.1,0.2,0,0.2L70.2,75c-0.1,0.1-0.2,0.1-0.2,0
			l-0.6-0.7c-0.1-0.1-0.1-0.2,0-0.3l2.1-2.2c0.1-0.1,0.1-0.2,0-0.2L57.7,56.1c-0.1,0-0.1,0-0.2,0L55,57.9c-0.1,0.1-0.2,0.1-0.2,0
			l-0.6-0.7c-0.1-0.1-0.1-0.2,0-0.2L67,45.5z"/>
		<path class="st0" d="M86.2,57.4c0.8-0.5,1.5-0.5,2.3,0c0.2,0.2,0.4,0.4,0.6,0.6c0.3,0.5,0.4,1,0.3,1.5c-0.1,0.6-0.4,1-0.9,1.3
			c-0.5,0.3-1,0.4-1.5,0.3c-0.6-0.1-1-0.4-1.3-0.9c-0.3-0.5-0.4-1-0.3-1.6S85.7,57.7,86.2,57.4z"/>
		<path class="st0" d="M97.5,28.1c0.1-0.1,0.2,0,0.2,0.1l2.4,5.1c0.1,0.1,0,0.2-0.1,0.3l-1.2,0.6c-0.1,0-0.2,0-0.2-0.1l-2.4-3.4
			c0-0.1-0.1-0.1-0.2-0.1l-7.5,3.5c-0.1,0.1-0.1,0.1-0.1,0.2l3.8,8c0.1,0.1,0.1,0.1,0.2,0.1l4.5-2.1c0.1-0.1,0.2-0.1,0.1-0.2
			l-0.9-2.8c0-0.1,0-0.2,0.1-0.2l0.9-0.4c0.1-0.1,0.2,0,0.2,0.1l3.3,7.1c0,0.1,0,0.2-0.1,0.2l-0.9,0.4c-0.1,0-0.2,0-0.2-0.1L98,41.9
			c0-0.1-0.1-0.1-0.2-0.1l-4.5,2.1c-0.1,0-0.1,0.1-0.1,0.2l4.2,8.8c0,0.1,0.1,0.1,0.2,0.1l7.9-3.7c0.1-0.1,0.2-0.1,0.1-0.2l-1.1-3.9
			c0-0.1,0-0.2,0.1-0.2l1.2-0.6c0.1,0,0.2,0,0.2,0.1l2.4,5.1c0,0.1,0,0.2-0.1,0.2l-16,7.6c-0.1,0-0.2,0-0.2-0.1l-0.4-0.8
			c-0.1-0.1,0-0.2,0.1-0.3l2.6-1.6c0.1-0.1,0.1-0.1,0.1-0.2l-8.9-18.8c-0.1,0-0.1-0.1-0.2,0l-2.9,1c-0.1,0-0.2,0-0.2-0.1l-0.4-0.8
			c0-0.1,0-0.2,0.1-0.2L97.5,28.1z"/>
		<path class="st0" d="M112.6,44.9c0.9-0.3,1.6-0.1,2.2,0.6c0.2,0.2,0.3,0.5,0.4,0.7c0.2,0.5,0.1,1.1-0.2,1.5
			c-0.3,0.5-0.7,0.9-1.2,1c-0.5,0.2-1.1,0.1-1.6-0.1s-0.8-0.7-1-1.2c-0.2-0.6-0.1-1.1,0.1-1.6S112,45,112.6,44.9z"/>
		<path class="st0" d="M127.2,26.7c-0.1,0-0.2,0-0.2-0.1l-1.4-3.9c0-0.1-0.1-0.1-0.2-0.1c-1.1-0.3-2.2-0.3-3.4-0.1
			c-1.2,0.2-2.2,0.7-2.9,1.5c-0.8,0.9-1.1,1.9-0.9,3.1c0.2,1.1,0.8,2,1.8,2.7c0.7,0.4,1.7,0.8,3.1,1.2l2.5,0.6
			c1.9,0.5,3.4,1.1,4.4,1.8c1.2,0.9,2,2.1,2.3,3.7c0.4,2.4-0.2,4.4-1.7,6c-1.4,1.5-3.3,2.4-5.8,2.9c-1.3,0.2-2.7,0.3-4.4,0.2
			c-0.5,0-0.9-0.1-1.3-0.2c-0.1,0-0.2-0.1-0.2-0.1l-1-5.3c0-0.1,0-0.2,0.1-0.2l1.5-0.3c0.1,0,0.2,0,0.2,0.1l1.4,3.9
			c0,0,0,0.1,0.1,0.1l0.1,0.1c0.9,0.3,2.1,0.3,3.6,0c1.5-0.3,2.6-0.8,3.5-1.7c1-1,1.3-2.2,1.1-3.6c-0.4-1.9-1.9-3.3-4.7-4l-2.5-0.7
			c-1.9-0.5-3.3-1.1-4.2-1.8c-1.3-0.9-2.1-2.1-2.3-3.6c-0.3-1.5-0.1-2.9,0.7-4.2c0.7-1.3,1.7-2.3,3.1-3c0.9-0.5,1.8-0.8,2.8-1
			c1.4-0.2,2.8-0.3,4.3-0.3c0.4,0,0.9,0.1,1.3,0.1c0.1,0,0.2,0,0.2,0.1l1,5.4c0,0.1,0,0.2-0.1,0.2L127.2,26.7z"/>
		<path class="st0" d="M137.8,40.3c0.9-0.1,1.6,0.3,2,1.2c0.1,0.3,0.2,0.5,0.2,0.8c0,0.6-0.1,1-0.5,1.5c-0.4,0.4-0.9,0.7-1.4,0.7
			c-0.6,0-1.1-0.1-1.5-0.5c-0.4-0.4-0.7-0.9-0.7-1.4c0-0.6,0.1-1.1,0.5-1.5C136.8,40.6,137.3,40.4,137.8,40.3z"/>
		<path class="st0" d="M164.7,21c0.1,0,0.2,0.1,0.2,0.2l-0.5,5.6c0,0.1-0.1,0.2-0.2,0.2l-1.3-0.1c-0.1,0-0.2-0.1-0.2-0.2l-0.3-4.1
			c0-0.1,0-0.1-0.2-0.2l-5.8-0.5c-0.1,0-0.1,0-0.2,0.2l-1.9,20.5c0,0.1,0,0.2,0.2,0.2l3.4,0.6c0.1,0,0.2,0.1,0.2,0.2l-0.1,0.9
			c0,0.1-0.1,0.2-0.2,0.2l-10.3-0.9c-0.1,0-0.2-0.1-0.2-0.2l0.1-0.9c0-0.1,0.1-0.2,0.2-0.2l3.4,0c0.1,0,0.2-0.1,0.2-0.2l1.9-20.6
			c0-0.1,0-0.2-0.1-0.2l-5.8-0.5c-0.1,0-0.2,0-0.2,0.1l-1.1,4c0,0.1-0.1,0.1-0.2,0.1l-1.3-0.1c-0.1,0-0.2-0.1-0.2-0.2l0.5-5.6
			c0-0.1,0.1-0.2,0.2-0.2L164.7,21z"/>
		<path class="st0" d="M167.6,43c0.9,0.2,1.4,0.8,1.6,1.7c0,0.3,0,0.6,0,0.8c-0.1,0.5-0.4,1-0.9,1.2c-0.5,0.3-1.1,0.4-1.6,0.3
			c-0.5-0.1-1-0.4-1.3-0.9c-0.3-0.5-0.4-1-0.2-1.6c0.1-0.6,0.4-1,0.9-1.3C166.6,43,167.1,42.9,167.6,43z"/>
		<path class="st0" d="M180.6,24.8c0-0.1,0.1-0.1,0.2-0.1l5.8,2.5c0,0,0.1,0.1,0.1,0.1l5.4,21.5l6.2-14.6c0-0.1,0-0.2-0.1-0.2
			l-2.3-1.3c-0.1,0-0.1-0.1-0.1-0.2l0.4-1c0-0.1,0.1-0.1,0.2-0.1l6.9,2.9c0.1,0,0.1,0.1,0.1,0.2l-0.4,1c-0.1,0.1-0.1,0.2-0.2,0.1
			l-2.6-0.8c-0.1,0-0.2,0-0.2,0.1l-8.8,20.6c0,0.1-0.1,0.1-0.3,0.1l-0.6-0.3c0,0-0.1-0.1-0.1-0.2l-6.2-25l-7.2,17
			c-0.1,0.1,0,0.2,0.1,0.2l2.3,1.3c0.1,0,0.1,0.1,0.1,0.2l-0.4,1c0,0.1-0.1,0.1-0.2,0.1l-6.9-2.9c-0.1-0.1-0.2-0.1-0.1-0.2l0.4-1
			c0-0.1,0.1-0.1,0.2-0.1l2.6,0.8c0.1,0,0.2,0,0.3-0.1l8-18.8c0-0.1,0-0.2-0.1-0.2l-2.7-1.5c-0.1,0-0.1-0.1-0.1-0.2L180.6,24.8z"/>
		<path class="st0" d="M210.9,40.2c0.5,0.3,0.9,0.7,1.3,1.2c0.3,0.5,0.5,1,0.7,1.6c0.1,0.6,0.1,1.1,0,1.7c-0.1,0.6-0.3,1.1-0.7,1.6
			c-0.3,0.5-0.8,1-1.2,1.3c-0.5,0.3-1,0.5-1.6,0.7s-1.1,0.1-1.7,0s-1.1-0.3-1.6-0.7c-0.5-0.3-0.9-0.7-1.3-1.2
			c-0.3-0.5-0.5-1-0.7-1.6s-0.1-1.1,0-1.7c0.1-0.6,0.3-1.1,0.7-1.6c0.3-0.5,0.7-0.9,1.2-1.3c0.5-0.3,1-0.5,1.6-0.7
			c0.6-0.1,1.1-0.1,1.7,0C209.8,39.6,210.4,39.9,210.9,40.2z M210.1,41.4c-0.3-0.2-0.7-0.4-1.1-0.4c-0.4-0.1-0.7,0-1.1,0
			c-0.3,0.1-0.7,0.2-1,0.5c-0.3,0.2-0.6,0.5-0.8,0.8c-0.2,0.3-0.4,0.7-0.5,1.1c-0.1,0.4-0.1,0.7,0,1.1c0.1,0.4,0.2,0.7,0.4,1
			c0.2,0.3,0.5,0.6,0.8,0.8c0.3,0.2,0.7,0.4,1.1,0.4c0.4,0.1,0.7,0.1,1.1,0c0.3-0.1,0.7-0.2,1-0.5c0.3-0.2,0.6-0.5,0.8-0.9
			c0.2-0.3,0.4-0.7,0.4-1.1c0.1-0.4,0.1-0.7,0-1.1c-0.1-0.4-0.2-0.7-0.4-1C210.7,41.9,210.4,41.7,210.1,41.4z"/>
		<path class="st0" d="M214.9,55.6c0-0.1,0.1,0,0.2,0c1.4,1.2,2.8,1.8,4.2,1.8c1.5,0,2.8-0.6,3.8-1.8c0.9-1,1.2-2,1.1-3
			c-0.1-1-0.6-2-1.6-2.8c-0.6-0.5-1.6-1.1-2.9-1.6c-0.1,0-0.3,0-0.4,0.1l-2.8,2.5c-0.1,0.1-0.1,0.1-0.2,0l-1-0.8
			c-0.1-0.1-0.1-0.1,0-0.2l3.4-3.9c0-0.1,0.1-0.1,0.2,0c2.1,0.9,3.9,1.9,5.3,3.1c1.5,1.3,2.4,2.6,2.9,4c0.5,1.7,0.2,3.2-1,4.6
			c-0.8,0.9-1.8,1.5-3.1,1.7c-1.3,0.3-2.5,0.2-3.8-0.3c1.2,1.4,1.8,3,1.8,4.6c0,1.6-0.5,3-1.5,4.2c-1.6,1.9-3.6,2.7-6.1,2.5
			c-2.2-0.2-4.3-1.1-6.1-2.7c-0.9-0.8-1.9-1.9-3-3.4c-0.3-0.4-0.6-0.8-0.8-1.1c0-0.1,0-0.2,0-0.2l3.6-4.1c0.1-0.1,0.1-0.1,0.2,0
			l1.1,0.9c0.1,0.1,0.1,0.1,0,0.2l-2.1,3.6c-0.1,0.1-0.1,0.2,0,0.3c0.4,0.8,1.1,1.7,2.2,2.7c1.2,1.1,2.5,1.6,3.9,1.5
			c1.3-0.1,2.6-0.8,3.7-2.1c1.1-1.3,1.6-2.7,1.4-4.1s-1-2.7-2.4-4c-0.4-0.3-0.8-0.6-1.1-0.8c-0.1-0.1-0.1-0.1,0-0.2L214.9,55.6z"/>
	</g>
</g>
</svg>
