<?xml version="1.0" encoding="utf-8"?>
<!-- Generator: Adobe Illustrator 21.1.0, SVG Export Plug-In . SVG Version: 6.00 Build 0)  -->
<svg version="1.1" id="Layer_1" xmlns="http://www.w3.org/2000/svg" xmlns:xlink="http://www.w3.org/1999/xlink" x="0px" y="0px"
	 viewBox="0 0 1302.1 824" style="enable-background:new 0 0 1302.1 824;" xml:space="preserve">
<style type="text/css">
	.st0{opacity:0.1;}
	.st1{fill:#006334;}
	.st2{opacity:0.82;fill:url(#SVGID_1_);enable-background:new    ;}
	.st3{fill:none;stroke:#006334;stroke-width:7.2632;}
	.st4{clip-path:url(#SVGID_3_);fill:#006334;}
	.st5{clip-path:url(#SVGID_5_);fill:#006334;}
	.st6{fill:#074422;}
	.st7{fill:#FFFFFF;stroke:#FFFFFF;stroke-width:0.5188;}
</style>
<g class="st0">
	<path class="st1" d="M651.1,339.9c-54.9,0-99.5,44.5-99.5,99.5c0,54.9,44.5,99.5,99.5,99.5s99.5-44.5,99.5-99.5
		C750.5,384.4,706,339.9,651.1,339.9z M718.5,408.9c-1.1,3.6-4.7,6.4-10.3,4.5c-5.6-1.9-13.5-6.8-13.5-6.8l-2.8,0.2l-1.1,0.9
		c0,0,2.7,4.1,2.9,5.7c0.2,1.6,0.3,3.8,0.3,3.8s3.5,4.5,4.2,6.3c0.6,1.8,1,6,1,6s3.3,4.4,4.1,7.8c0.8,3.4,0.2,11.9,0.2,11.9
		s1.3,5.1,1.1,8.7c-0.2,3.5-2.6,10.9-2.6,10.9s0.6,5.1,0,7.7c-0.6,2.6-2.7,8.3-2.7,8.3s6.1,1,7.9,4.7c1.8,3.7,5.8,13.5,2.7,15.4
		c-3,1.9-12.2,1.8-16.7-1.8s-4.5-3.5-4.5-3.5s-2.4,3.5-7.9,5.4c-5.4,1.9-8,1.8-8,1.8s-3.8,3-6.6,4.3c-2.7,1.3-5.9,2.7-5.9,2.7
		s0.2,7.1-2.2,9.9c-2.4,2.9-7.1,3.4-7.1,3.4s-4.7-0.5-7.1-3.4c-2.4-2.9-2.2-9.9-2.2-9.9s-3.2-1.4-5.9-2.7c-2.7-1.3-6.6-4.3-6.6-4.3
		s-2.6,0.2-8-1.8c-5.4-1.9-7.9-5.4-7.9-5.4s0,0-4.5,3.5c-4.5,3.5-13.6,3.7-16.7,1.8c-3-1.9,1-11.7,2.7-15.4c1.8-3.7,7.9-4.7,7.9-4.7
		s-2.1-5.8-2.7-8.3c-0.6-2.6,0-7.7,0-7.7s-2.4-7.4-2.6-10.9c-0.2-3.5,1.1-8.7,1.1-8.7s-0.6-8.5,0.2-11.9c0.8-3.4,4.1-7.8,4.1-7.8
		s0.3-4.2,1-6c0.6-1.8,4.2-6.3,4.2-6.3s0.1-2.2,0.3-3.8c0.2-1.6,2.9-5.7,2.9-5.7l-1.1-0.9l-2.8-0.2c0,0-7.9,4.9-13.5,6.8
		c-5.6,1.9-9.2-0.9-10.3-4.5c-1.1-3.6,2.1-7.9,2.1-7.9s5.3-4.7,8.8-7.3c3.4-2.6,15-4.7,19-4.7c4.1,0,15.6,3.2,16.2,3.4
		c0.6,0.2,4.1-1.7,4.9-2.1c0.9-0.4,6.6-3.4,6.6-3.4s0.4-1.5,0.4-2.1c0-0.6-2.3-2.3-4.3-6c-1.9-3.6-1.1-7.3-1.3-9.8
		c-0.2-2.6,2.8-7.7,5.6-12.8c2.8-5.1,9.3-4.5,9.3-4.5s6.5-0.6,9.3,4.5c2.8,5.1,5.8,10.3,5.6,12.8c-0.2,2.6,0.6,6.2-1.3,9.8
		c-1.9,3.6-4.3,5.3-4.3,6c0,0.6,0.4,2.1,0.4,2.1s5.8,3,6.6,3.4c0.9,0.4,4.3,2.3,4.9,2.1c0.6-0.2,12.2-3.4,16.2-3.4s15.6,2.1,19,4.7
		c3.4,2.6,8.8,7.3,8.8,7.3S719.5,405.3,718.5,408.9z"/>
	<path class="st1" d="M713.2,547.2c-1.5-6.1-3.5-11.6-4.7-17.9c-1.7,0.6-3.2,2.1-4.7,3.2c-21.4,14.4-67.1,16.6-93.8,5.8
		c-2.5-1-8.2-3.5-9.5-4.7c-1.8-1.7-5-4-6.8-4.7c-1.7,6.4-2.5,13.6-5.3,19c-5.2,0.6-10.9,0.6-15.8,1.6c-0.5,1.3,3.2,2.9,4.2,3.7
		c0.7,0.5,0.9,1.1,1.6,1.6c2.1,1.5,4.1,2.6,5.8,3.7c5.7,3.6,11.7,6.8,18.4,9.5c12,4.9,26.6,7.2,41.6,7.9c3.7,0.2,7.4,0.2,11.1,0
		c23.6-1.1,44.4-7.3,60.1-15.8c2.6-1.4,5.6-3,7.9-4.7c1.2-0.9,2.1-2.2,3.2-3.2c0.5-0.4,1.5-0.5,2.1-1.1c0.6-0.6,1.1-1.2,1.1-2.1
		C724.1,548.3,718,548.4,713.2,547.2z"/>
	
		<radialGradient id="SVGID_1_" cx="651.0675" cy="864.6759" r="99.4694" gradientTransform="matrix(1 0 0 -1 0 1304)" gradientUnits="userSpaceOnUse">
		<stop  offset="0" style="stop-color:#FFFFFF"/>
		<stop  offset="1" style="stop-color:#006334"/>
	</radialGradient>
	<path class="st2" d="M750.5,439.3c0,54.9-44.5,99.5-99.5,99.5s-99.5-44.5-99.5-99.5c0-54.9,44.5-99.5,99.5-99.5
		S750.5,384.4,750.5,439.3z"/>
	<circle class="st3" cx="651.1" cy="439.3" r="148"/>
	<g>
		<g>
			<defs>
				<path id="SVGID_2_" d="M586.4,543.1l-1.1-0.7l-15.3,4.3l-8.8,3L530,526.7L507.2,471v-49.5l5.7-30.1l13.5-19.1l21.3-5.3l14,15.6
					l-8.3,22.8l-5.7,20.8l1.8,38.7l7.5,14.5l14.5,24.4c0,0,18.4,18.3,19.7,19.3C592.5,524.1,586.4,543.1,586.4,543.1z"/>
			</defs>
			<clipPath id="SVGID_3_">
				<use xlink:href="#SVGID_2_"  style="overflow:visible;"/>
			</clipPath>
			<path class="st4" d="M620,548.4c-0.5-1.3-1.7-1.4-3-1.1c-5.1-1.7-7.3-10.4-8.6-18.8c4.4,2.4,14.1,9.7,10.9,18.3
				c2.7,3.2,12.2,1.8,11.6-3.7c2.2,2.9,1.9,7.8,3.3,12.5c-1.3-1.4-2.2-3.7-3.8-4.6c-2.5,0.7-4.6,0.6-6.7,0.6
				c5.7,9.8-7.8,13-4.4,24.5c-5.9-10.6,6.6-16,0.6-25c-3.4,0.1-7.1-0.5-10.6,1.4c1.7,10.1-6.9,12.2-15.1,14.5
				c1.3-5.6,5.9-18.9,14.7-14.7c0.7-0.5,1.7-0.9,2.5-1.4c-6.9-0.5-11.9-4.7-20-2.8c0.8,8.8-10.4,10.3-17.6,9.9
				c1.9-5.3,10.1-17,17.3-10.3c0.6-0.5,1.8-0.6,2.8-0.8c-6.7-2.4-11.7-8.1-19.8-7.8c-0.7,9.1-13.8,7-19.2,5.1
				c3-4.8,13.7-13.7,18.9-5.7c1.1-0.2,1.9,0,3-0.4c-6.3-3.4-10.7-10.8-18.1-11.9c-3.5,9-15.2,3-20.3,0.2c4.5-4,16.9-9.7,20-0.8
				c1.1-0.1,1.9,0.4,3,0.2c-5.4-5-9.3-12.9-15.6-16.1c-6.1,7.7-15.4-1.1-20.1-5.9c8-1.8,17.3-4.2,20,5.3c0.7,0.6,1.6,0.8,2.4,1
				c-4.4-6-7.2-15.3-12.7-19.2c-7.5,5.6-14.3-4.5-18.8-10.7c7,0.5,15.8-0.7,18.5,6.9c0.9,2.5,0.4,4.6,2.9,5
				c-3.6-6.6-5.1-17.4-9.7-22.1c-8.3,3.7-12.9-7.4-16.7-15.4c6.8,2.1,16.7,3.9,17,14.9c0.6,1.2,1.3,1.9,2.2,2.4
				c-2.7-8.5-1.5-17.7-5.5-23.5c-8,1.5-11.2-8.9-13.8-19c5.7,3,16.2,8,14,18.5c0.5,1.1,1.2,1.9,1.8,3c-0.7-8.3,2.1-16.1-1.4-24.8
				c-7.6,0.5-9.7-13.4-10-22c4.9,3.4,14.8,13.2,10.3,21.5c0.5,1.4,1.2,2.4,1.6,3.9c0.5-8.3,4.7-13.7,2.7-23.9
				c-8.1-0.9-8-16.7-6.8-23.4c4.3,4.4,12.5,16.4,7.3,23.1c0.2,1.4,0.6,2.2,0.9,3.4c2.2-5.3,3.8-11.1,6.5-16
				c-5-9.8,3.3-16.2,8.1-21.3c0.7,8.7,1.1,20.6-7.3,21.6c-1.9,4-3.8,8-5,12.5c0.9,0.2,1.7-1.3,2.8-1.5c-0.5-8.5,11.1-8.4,16.7-7
				c-2.8,4.6-10.5,13.4-16.5,7.4c-5.7,2.8-5.4,10.3-6.7,16.5c0.7,0.4,1-1.1,1.7-1.3c-0.7-8.6,11.3-8.1,16.6-6.8
				c-2.8,4.3-10.6,13.6-16.5,7.2c-4.1,4.5-2.9,13.3-3.2,20.9c0.5,0.3,0.8-1,1.4-1.2c-1.8-8.5,8-10.2,14.7-10.4
				c-1.4,4.4-7.3,15.4-14.4,10.8c-3.7,4.3-0.4,14,0.1,21.5c1.4-0.4,0.8-1.8,0.4-3.4c0.7-6.9,6.9-9.4,14-11.4
				c-2.1,6-4.6,16.5-13,14.1c-2.3,4.8,2.3,14.5,3.8,20.5c1.6-0.8,0.2-2.3,0-3.6c-1.2-7.3,6.6-11.2,11.9-14.1
				c-1.3,6.8-2.1,17.6-10.6,16.5c-1,6.6,4.6,14.6,7.5,19.7c-4.2-9.7,2.5-15.6,7.8-20.1c0.1,8.1,0.6,18.4-7.3,19.1
				c1.4,7.9,7,12.7,10.9,17.8c-5.6-8.5-0.3-17.1,4-22.2c1.7,9.2,3.4,18.5-3.7,20.8c3.1,7.8,8.7,10.8,13.8,14.9
				c-7-6.2-3.3-18.3,0-22.9c2.9,6.9,6.3,19,0.1,21.3c3.5,7.1,10,8.5,15.5,11.6c-6.8-3.8-6.5-17.2-3.8-23c3.1,4.9,9.8,17.4,3.6,21.2
				c4,6.1,11.2,6,17.3,8.1c-0.6-2.4-2-1.4-3.2-2c-5.4-2.7-5-14.3-5-20c4.1,3.3,12.1,13.4,7.7,20.1
				C606.3,549.6,613.8,547.7,620,548.4z"/>
		</g>
	</g>
	<g>
		<g>
			<defs>
				<path id="SVGID_4_" d="M714.8,542.1l1.1-0.7l15.3,4.3l8.8,3l31.1-23.1L794,470v-49.5l-5.7-30.1l-13.5-19.1l-21.3-5.3l-14,15.6
					l8.3,22.8l5.7,20.8l-1.8,38.7l-7.5,14.5l-14.5,24.4c0,0-18.4,18.3-19.7,19.3C708.7,523,714.8,542.1,714.8,542.1z"/>
			</defs>
			<clipPath id="SVGID_5_">
				<use xlink:href="#SVGID_4_"  style="overflow:visible;"/>
			</clipPath>
			<path class="st5" d="M681.2,547.3c0.5-1.3,1.7-1.4,3-1.1c5.1-1.7,7.3-10.4,8.6-18.8c-4.4,2.4-14.1,9.7-10.9,18.3
				c-2.7,3.2-12.2,1.8-11.6-3.7c-2.2,2.9-1.9,7.8-3.3,12.5c1.3-1.4,2.2-3.7,3.8-4.6c2.5,0.7,4.6,0.6,6.7,0.6
				c-5.7,9.8,7.8,13,4.4,24.5c5.9-10.6-6.6-16-0.6-25c3.4,0.1,7.1-0.5,10.6,1.4c-1.7,10.1,6.9,12.2,15.1,14.5
				c-1.3-5.6-5.9-18.9-14.7-14.7c-0.7-0.5-1.7-0.9-2.5-1.4c6.9-0.5,11.9-4.7,20-2.8c-0.8,8.8,10.4,10.3,17.6,9.9
				c-1.9-5.3-10.1-17-17.3-10.3c-0.6-0.5-1.8-0.6-2.8-0.8c6.7-2.4,11.7-8.1,19.8-7.8c0.7,9.1,13.8,7,19.2,5.1
				c-3-4.8-13.7-13.7-18.9-5.7c-1.1-0.2-1.9,0-3-0.4c6.3-3.4,10.7-10.8,18.2-11.9c3.5,9,15.2,3,20.3,0.2c-4.5-4-16.9-9.7-20-0.8
				c-1.1-0.1-1.9,0.4-3,0.2c5.4-5,9.3-12.9,15.6-16.1c6.1,7.7,15.4-1.1,20.1-5.9c-8-1.8-17.3-4.2-20,5.3c-0.7,0.6-1.6,0.7-2.4,1
				c4.4-6,7.2-15.3,12.7-19.2c7.5,5.6,14.3-4.5,18.8-10.7c-7,0.5-15.8-0.7-18.5,6.9c-0.9,2.5-0.4,4.6-2.9,5
				c3.6-6.6,5.1-17.4,9.7-22.1c8.3,3.7,12.9-7.3,16.7-15.4c-6.8,2.1-16.7,3.9-17,14.9c-0.6,1.2-1.3,1.9-2.2,2.4
				c2.7-8.5,1.5-17.7,5.5-23.5c8,1.5,11.2-8.9,13.8-19c-5.7,3-16.2,8-14,18.5c-0.5,1.1-1.2,1.9-1.8,3c0.7-8.3-2.1-16.1,1.4-24.8
				c7.6,0.5,9.7-13.4,10-22c-4.9,3.4-14.8,13.2-10.3,21.5c-0.5,1.4-1.2,2.4-1.6,3.9c-0.5-8.3-4.7-13.7-2.7-23.9
				c8.1-0.9,8-16.7,6.8-23.4c-4.3,4.4-12.5,16.4-7.3,23.1c-0.2,1.4-0.6,2.2-0.9,3.4c-2.2-5.3-3.8-11.1-6.5-16
				c5-9.8-3.3-16.2-8.1-21.3c-0.7,8.7-1.1,20.6,7.3,21.6c1.9,4,3.8,8,5,12.5c-0.9,0.2-1.7-1.3-2.8-1.5c0.5-8.5-11.1-8.4-16.7-7
				c2.8,4.6,10.5,13.4,16.5,7.4c5.7,2.8,5.4,10.3,6.7,16.5c-0.7,0.4-1-1.1-1.7-1.3c0.6-8.6-11.3-8.1-16.6-6.8
				c2.8,4.3,10.6,13.6,16.5,7.2c4.2,4.5,2.9,13.3,3.2,20.9c-0.5,0.3-0.8-1-1.4-1.2c1.8-8.5-8-10.2-14.7-10.4
				c1.4,4.4,7.3,15.4,14.4,10.8c3.7,4.3,0.4,14-0.1,21.5c-1.4-0.4-0.8-1.8-0.3-3.4c-0.7-6.9-6.9-9.4-14-11.4c2.1,6,4.6,16.5,13,14.1
				c2.3,4.8-2.3,14.5-3.8,20.5c-1.6-0.8-0.2-2.3,0-3.6c1.2-7.3-6.6-11.2-11.9-14.1c1.3,6.8,2.1,17.6,10.6,16.5
				c1,6.6-4.6,14.6-7.5,19.7c4.2-9.7-2.5-15.6-7.8-20.1c-0.1,8.1-0.6,18.4,7.3,19.1c-1.4,7.9-7,12.7-10.9,17.8
				c5.6-8.5,0.3-17.1-4-22.2c-1.7,9.2-3.4,18.5,3.7,20.8c-3.1,7.8-8.7,10.8-13.8,14.9c7-6.2,3.3-18.3,0-22.9
				c-2.9,6.9-6.3,19-0.1,21.3c-3.5,7.1-10,8.5-15.5,11.6c6.8-3.8,6.5-17.2,3.8-23c-3.1,4.9-9.8,17.4-3.6,21.2
				c-4,6.1-11.2,6-17.3,8.1c0.6-2.4,2-1.4,3.2-2c5.4-2.7,5-14.3,5-20c-4.1,3.3-12.1,13.4-7.7,20.1
				C694.9,548.6,687.4,546.7,681.2,547.3z"/>
		</g>
	</g>
	<g>
		<g>
			<path class="st6" d="M551,364.2c-3.5-2.5-4.2-3-5-3.5c-0.8-0.5-1.3-0.6-2,0c-0.2,0.1-0.5,0.5-0.7,0.8c-0.2,0.2-0.3,0.3-0.5,0.2
				c-0.2-0.1-0.1-0.3,0.1-0.6c0.4-0.6,0.9-1.3,1.3-1.8c0.4-0.6,0.8-1,1-1.4c0.5-0.7,3.8-4.9,4.1-5.3c0.3-0.4,0.5-0.8,0.6-1
				c0.1-0.1,0.1-0.3,0.2-0.4c0.1-0.1,0.2-0.1,0.3,0c0.2,0.1,0.4,0.4,1.3,1.4c0.2,0.2,1.1,1,1.4,1.3c0.1,0.1,0.2,0.3,0.1,0.4
				s-0.3,0.1-0.5-0.1c-0.2-0.1-0.6-0.4-0.9-0.5c-0.5-0.2-0.9-0.2-1.9,0.7c-0.3,0.3-2.1,2.5-2.4,2.9c-0.1,0.1,0,0.2,0.1,0.3
				c2.3,1.7,3.5,2.6,5.8,4.3c0.2,0.1,0.3,0.2,0.4,0c0.3-0.4,2.1-2.7,2.4-3.2c0.3-0.5,0.5-0.8,0.4-1.2c-0.1-0.3-0.1-0.4,0-0.5
				c0.1-0.1,0.2-0.1,0.3,0c0.1,0.1,0.4,0.5,1.5,1.5c0.4,0.4,1.3,1.2,1.4,1.3c0.2,0.1,0.4,0.3,0.3,0.5c-0.1,0.1-0.2,0.1-0.3,0
				c-0.2-0.2-0.5-0.4-0.9-0.6c-0.5-0.3-1.1-0.3-1.7,0.4c-0.3,0.3-1.8,2.2-2.2,2.7c-0.1,0.1,0,0.2,0.1,0.3c0.7,0.5,1.1,0.8,1.8,1.4
				c0.8,0.6,2.9,2.2,3.5,2.7c1.6,1.1,2.2,1.1,3.6-0.7c0.4-0.5,1-1.2,1.1-1.9c0.1-0.7-0.2-1.3-1-2.1c-0.2-0.2-0.3-0.3-0.2-0.5
				c0.1-0.1,0.3,0,0.5,0.2c0.5,0.4,1.9,1.8,2.2,2.3c0.5,0.6,0.3,0.7-0.2,1.4c-1.1,1.3-1.8,2.2-2.5,3c-0.6,0.7-1.1,1.3-1.5,1.8
				c-0.1,0.2-0.4,0.6-0.7,1.1c-0.3,0.4-0.6,0.9-0.8,1.3c-0.2,0.2-0.3,0.3-0.5,0.2c-0.1-0.1-0.1-0.2,0-0.4c0.2-0.3,0.3-0.5,0.4-0.7
				c0.2-0.4-0.3-0.9-0.9-1.5c-0.9-0.8-2.8-2.1-4.9-3.6C553.4,366,552.6,365.4,551,364.2z"/>
			<path class="st6" d="M567.8,361.4c-0.5-0.5-1-1.5-0.4-2.2c0.5-0.6,1.4-0.6,2.1,0.1s1,1.6,0.4,2.2
				C569.4,362.3,568.4,362,567.8,361.4z"/>
			<path class="st6" d="M565.1,347.6c-3-3.1-3.6-3.7-4.3-4.3c-0.7-0.7-1.2-0.8-1.9-0.4c-0.2,0.1-0.5,0.4-0.8,0.7
				c-0.2,0.2-0.4,0.3-0.5,0.1c-0.1-0.1-0.1-0.3,0.2-0.6c0.5-0.5,1-1,1.5-1.5c0.5-0.5,0.9-0.8,1.2-1.1c0.6-0.6,4.4-4,4.7-4.4
				c0.3-0.3,0.6-0.7,0.7-0.8c0.1-0.1,0.1-0.3,0.2-0.4c0.1-0.1,0.2,0,0.3,0.1c0.1,0.2,0.3,0.5,1,1.5c0.2,0.2,0.9,1.2,1.1,1.5
				c0.1,0.1,0.1,0.3,0,0.4c-0.1,0.1-0.3,0-0.4-0.2c-0.1-0.2-0.5-0.5-0.8-0.7c-0.5-0.3-0.9-0.4-1.9,0.3c-0.4,0.2-2.4,2-2.7,2.3
				c-0.1,0.1-0.1,0.2,0.1,0.3c2,2.1,3,3.2,4.9,5.3c0.1,0.1,0.2,0.2,0.3,0.1c0.4-0.4,2.4-2.2,2.8-2.6c0.4-0.4,0.6-0.7,0.6-1.1
				c0-0.3,0-0.5,0.1-0.5c0.1-0.1,0.2-0.1,0.3,0.1s0.3,0.6,1.2,1.7c0.3,0.5,1,1.4,1.2,1.5c0.1,0.2,0.4,0.4,0.2,0.5
				c-0.1,0.1-0.2,0-0.3-0.1c-0.2-0.2-0.4-0.5-0.7-0.7c-0.5-0.4-1-0.5-1.7,0c-0.4,0.3-2.1,1.8-2.5,2.2c-0.1,0.1,0,0.2,0.1,0.3
				c0.6,0.7,0.9,1,1.5,1.7c0.7,0.7,2.4,2.7,3,3.2c1.4,1.4,1.9,1.5,3.6,0c0.4-0.4,1.1-1,1.3-1.6c0.2-0.6,0-1.3-0.6-2.3
				c-0.2-0.3-0.2-0.4-0.1-0.5c0.1-0.1,0.3,0.1,0.5,0.3c0.4,0.5,1.5,2.1,1.8,2.6c0.4,0.7,0.2,0.8-0.4,1.3c-1.2,1-2.1,1.8-2.8,2.4
				c-0.7,0.6-1.2,1-1.7,1.5c-0.2,0.2-0.5,0.5-0.9,0.9c-0.3,0.3-0.7,0.8-1,1.1c-0.2,0.2-0.4,0.3-0.5,0.1c-0.1-0.1-0.1-0.2,0.1-0.4
				c0.2-0.2,0.4-0.5,0.5-0.6c0.2-0.4-0.1-0.9-0.7-1.6c-0.8-0.9-2.3-2.6-4.2-4.4C567.2,349.7,566.5,349,565.1,347.6z"/>
			<path class="st6" d="M581.8,348.1c-0.4-0.6-0.8-1.6,0-2.2c0.6-0.5,1.5-0.3,2.1,0.5c0.6,0.8,0.7,1.8,0.1,2.3
				C583.2,349.3,582.3,348.8,581.8,348.1z"/>
			<path class="st6" d="M587.7,345.5c-0.4,0-0.5,0-0.9-0.6c-0.9-1.3-1.8-2.7-2.1-3.1c-0.2-0.4-0.4-0.7-0.2-0.8
				c0.2-0.1,0.3,0.1,0.5,0.3c0.2,0.3,0.6,0.7,1,1.1c1.6,1.5,3.1,1.4,4.2,0.7c1.6-1,1.4-3,0.6-4.3c-0.7-1.2-1.7-2.2-4.3-2.7
				c-0.6-0.1-0.9-0.2-1.4-0.3c-3.5-0.7-5.4-1.7-6.7-3.6c-1.8-2.6-1.2-5.8,1.7-7.7c1.4-0.9,2.4-1.2,3.1-1.3c0.2-0.1,0.4-0.1,0.5,0.1
				c0.2,0.3,0.5,1.1,1.7,3c0.3,0.5,0.4,0.8,0.2,0.9c-0.1,0.1-0.3,0-0.5-0.3c-0.1-0.2-0.7-0.9-1.5-1.3c-0.6-0.3-1.7-0.6-3,0.2
				c-1.5,1-1.8,2.7-0.8,4.1c0.7,1.1,1.8,1.6,4.4,2c0.4,0.1,0.5,0.1,0.9,0.2c3.8,0.7,5.6,1.9,7,4.3c0.9,1.4,1.5,3.4,0.9,5.3
				c-0.4,1.3-1.2,2.2-2.2,2.8C589.7,345.1,588.8,345.5,587.7,345.5z"/>
			<path class="st6" d="M596.5,338.2c-0.4-0.6-0.5-1.7,0.3-2.2c0.6-0.3,1.5,0,1.9,0.8s0.4,1.9-0.3,2.2
				C597.7,339.6,596.9,338.9,596.5,338.2z"/>
			<path class="st6" d="M603.2,332.5c1,2,1.5,2.6,2,2.6c0.4,0,0.8-0.1,1.1-0.3c0.2-0.1,0.3-0.1,0.4,0.1c0.1,0.2-0.1,0.3-0.3,0.5
				c-1.2,0.5-2,0.8-2.4,1c-0.2,0.1-1,0.6-2,1.1c-0.2,0.1-0.4,0.2-0.5-0.1c-0.1-0.2,0-0.3,0.2-0.4c0.2-0.1,0.6-0.3,0.8-0.5
				c0.4-0.4,0.1-1.2-1-3.5c-2.9-6.1-4.3-9.2-7.2-15.4c-0.2-0.5-0.4-0.9-0.1-1c0.2-0.1,0.6,0.1,1.2,0.4c0.4,0.2,5.8,2.9,10.4,5.5
				c2.2,1.2,6.4,4.1,6.9,4.4c0,0,0.1,0,0.1,0c-1.8-4.8-2.7-7.2-4.5-12.1c-0.6-1.6-1-2.1-1.6-2.1c-0.4,0-1,0.2-1.3,0.3
				c-0.3,0.1-0.4,0.1-0.5-0.1c-0.1-0.2,0.2-0.3,0.5-0.5c1.2-0.4,2.3-0.7,2.8-0.9c0.3-0.1,1.1-0.5,2.2-0.8c0.3-0.1,0.5-0.1,0.6,0.1
				c0.1,0.2-0.1,0.3-0.3,0.4c-0.2,0.1-0.4,0.1-0.7,0.3c-0.6,0.4-0.6,1.1-0.1,2.6c2.2,6.9,3.3,10.3,5.6,17.2c0.2,0.6,0.2,0.9,0,0.9
				c-0.2,0.1-0.5-0.2-0.9-0.4c-1.8-1.2-5.6-3.8-8.9-5.6c-3.4-1.9-7.3-4.1-7.9-4.4c0,0,0,0-0.1,0C600.1,326,601.1,328.2,603.2,332.5z
				"/>
			<path class="st6" d="M614.5,314.4c-0.7-2.2-0.2-5.4,3.4-6.3c3-0.8,5.3,0.7,5.9,3.7c0.7,3-0.6,5.6-3.4,6.4
				C617.3,318.9,615.2,316.7,614.5,314.4z M617.8,309c-1.1,0.3-2.2,1.5-1.3,4.5c0.7,2.3,2.5,4.1,4.1,3.7c0.7-0.2,2.2-1,1.3-4.5
				C621.2,310,619.5,308.6,617.8,309z"/>
			<path class="st6" d="M636.7,305.1c0.5,0,0.6,0,0.6,0.2c0,0.2-0.1,0.4-0.1,0.5c-1.7,3.5-3.5,15.3-3.3,19c0,0.5,0.1,0.7,0.2,1
				c0.1,0.6-1.4,2-2.3,2.1c-0.2,0-0.3,0-0.3-0.3c-0.1-0.3-0.1-0.7-0.1-1.2c0.1-2.8,1.3-11.6,3.8-18.6c-2.4,0.3-3.7,0.5-6.1,0.9
				c-0.7,0.1-1.6,0.3-2.1,0.9c-0.4,0.4-0.5,1.4-0.4,1.8c0,0.2,0,0.4-0.2,0.4c-0.2,0-0.2-0.1-0.3-0.4c-0.2-1-0.5-4.4-0.6-4.7
				c-0.1-0.3,0-0.4,0.2-0.4c0.1,0,0.7,0.1,3.3-0.3C632.1,305.7,633.7,305.5,636.7,305.1z"/>
			<path class="st6" d="M653.6,316.8c0.4,0,0.7,0.1,0.7,0.4c0,0.4-0.4,0.5-1,0.6c-0.9,0.2-4.8,1.1-5.6,1.4c-0.4,0.2-0.8,0.5-0.9,0.5
				c-0.2,0-0.2-0.2-0.2-0.5c0.1-0.8,0.1-1.2,0.3-2c0.1-0.3,0.1-0.4,0.5-0.4C649.9,316.8,651.1,316.8,653.6,316.8z"/>
			<path class="st6" d="M665.7,313.4c0.5-4.3,0.6-5.1,0.7-6c0.1-1-0.1-1.4-0.8-1.7c-0.2-0.1-0.6-0.1-0.9-0.2c-0.3,0-0.4-0.1-0.4-0.3
				c0-0.2,0.2-0.2,0.6-0.2c0.7,0.1,1.4,0.2,2,0.2c0.6,0.1,1.2,0.2,1.5,0.2c0.8,0.1,5.6,0.9,6,0.9c0.5,0,0.9,0,1.1,0
				c0.1,0,0.3-0.1,0.4,0s0.1,0.1,0.1,0.3c0,0.2-0.2,0.5-0.5,1.8c-0.1,0.3-0.4,1.5-0.5,1.8c0,0.1-0.1,0.3-0.3,0.3
				c-0.2,0-0.2-0.2-0.1-0.4c0-0.2,0.1-0.7,0-1c-0.1-0.5-0.2-0.9-1.4-1.3c-0.4-0.1-2.9-0.6-3.4-0.6c-0.1,0-0.2,0.1-0.2,0.3
				c-0.4,2.9-0.6,4.3-1,7.2c0,0.2,0,0.3,0.1,0.3c0.5,0.1,3.1,0.5,3.6,0.5c0.5,0,0.9,0,1.1-0.2c0.2-0.2,0.3-0.3,0.4-0.3
				c0.1,0,0.1,0.1,0.1,0.3c0,0.2-0.2,0.6-0.6,2c-0.1,0.6-0.4,1.7-0.4,1.9c0,0.2-0.1,0.5-0.3,0.5c-0.2,0-0.2-0.2-0.1-0.3
				c0-0.3,0.1-0.7,0.1-1c0-0.6-0.2-1.1-1-1.3c-0.4-0.1-2.6-0.5-3.1-0.6c-0.1,0-0.2,0.1-0.2,0.3c-0.1,0.9-0.2,1.3-0.3,2.2
				c-0.1,1-0.5,3.6-0.6,4.4c-0.2,2,0,2.4,2.1,2.8c0.5,0.1,1.4,0.2,2,0c0.6-0.2,0.9-0.8,1.3-1.9c0.1-0.3,0.2-0.4,0.3-0.4
				c0.2,0,0.1,0.3,0.1,0.5c-0.1,0.6-0.7,2.5-0.9,3.1c-0.3,0.7-0.5,0.7-1.2,0.5c-1.5-0.3-2.6-0.5-3.4-0.7c-0.8-0.2-1.5-0.3-2.1-0.4
				c-0.2,0-0.7-0.1-1.2-0.1c-0.5,0-1-0.1-1.4-0.1c-0.3,0-0.4-0.1-0.4-0.3c0-0.1,0.1-0.2,0.4-0.2c0.3,0,0.6,0,0.7,0
				c0.4-0.1,0.6-0.7,0.8-1.5c0.3-1.2,0.5-3.4,0.8-6C665.4,316.4,665.5,315.4,665.7,313.4z"/>
			<path class="st6" d="M675.2,326.7c0.2-0.7,0.7-1.6,1.6-1.4c0.7,0.2,1.1,0.9,0.9,1.9c-0.2,1-0.9,1.7-1.7,1.5
				C675.2,328.5,675,327.5,675.2,326.7z"/>
			<path class="st6" d="M685.4,317.4c1.2-4.2,1.4-5,1.7-5.8c0.2-0.9,0.1-1.4-0.5-1.9c-0.2-0.1-0.6-0.2-0.9-0.3
				c-0.3-0.1-0.4-0.2-0.3-0.4c0.1-0.2,0.2-0.2,0.6-0.1c0.6,0.2,1.3,0.4,1.9,0.6c0.6,0.2,1.1,0.4,1.5,0.5c0.7,0.2,5.4,1.8,5.8,1.9
				c0.4,0.1,0.9,0.2,1.1,0.2c0.1,0,0.3,0,0.4,0c0.1,0,0.1,0.2,0.1,0.3c-0.1,0.2-0.3,0.5-0.8,1.7c-0.1,0.3-0.6,1.4-0.8,1.7
				c-0.1,0.1-0.2,0.3-0.3,0.2c-0.2-0.1-0.2-0.2-0.1-0.5c0.1-0.2,0.2-0.7,0.2-1c0-0.5-0.1-1-1.2-1.5c-0.4-0.2-2.8-1-3.2-1.2
				c-0.1,0-0.2,0-0.2,0.2c-0.9,2.8-1.3,4.1-2.2,6.9c-0.1,0.2-0.1,0.3,0.1,0.3c0.5,0.1,3,1,3.5,1.1c0.5,0.1,0.9,0.2,1.2,0
				c0.2-0.2,0.4-0.3,0.5-0.2c0.1,0,0.1,0.1,0.1,0.3c-0.1,0.2-0.3,0.6-0.9,1.9c-0.2,0.5-0.7,1.6-0.7,1.8c-0.1,0.2-0.2,0.5-0.4,0.4
				c-0.1-0.1-0.1-0.2-0.1-0.3c0.1-0.3,0.2-0.6,0.3-1c0.1-0.6-0.1-1.1-0.8-1.5c-0.4-0.2-2.5-0.9-3-1.1c-0.1,0-0.2,0.1-0.2,0.2
				c-0.3,0.9-0.4,1.3-0.7,2.2c-0.3,0.9-1.1,3.4-1.3,4.2c-0.6,1.9-0.4,2.4,1.6,3.1c0.5,0.2,1.3,0.5,2,0.3c0.6-0.1,1.1-0.6,1.6-1.7
				c0.1-0.3,0.2-0.4,0.4-0.3c0.2,0.1,0.1,0.3,0,0.5c-0.2,0.6-1.1,2.4-1.4,2.9c-0.4,0.6-0.6,0.6-1.3,0.3c-1.4-0.5-2.5-0.9-3.3-1.2
				c-0.8-0.3-1.4-0.5-2-0.7c-0.2-0.1-0.7-0.2-1.1-0.3c-0.4-0.1-1-0.2-1.4-0.3c-0.3-0.1-0.4-0.2-0.3-0.4c0-0.1,0.1-0.2,0.4-0.1
				c0.3,0.1,0.5,0.1,0.7,0.1c0.4,0,0.7-0.6,1-1.4c0.4-1.1,1.1-3.3,1.8-5.8C684.6,320.3,684.9,319.4,685.4,317.4z"/>
			<path class="st6" d="M692.7,332.1c0.3-0.7,1-1.5,1.8-1.1c0.7,0.3,0.9,1.1,0.5,2c-0.4,0.9-1.2,1.5-1.9,1.2
				C692.4,333.8,692.4,332.8,692.7,332.1z"/>
			<path class="st6" d="M710.2,320c-1.3-0.6-2-0.9-3.3-1.5c-1.3-0.6-1.9-0.7-2.5-0.2c-0.4,0.3-0.6,0.6-0.8,0.7
				c-0.1,0.2-0.3,0.3-0.4,0.2c-0.2-0.1-0.1-0.2,0-0.5c0.2-0.4,1.7-2.6,1.8-2.8c0.2-0.3,0.4-0.4,0.5-0.4c0.2,0.1,0.3,0.4,0.8,0.8
				c0.6,0.4,1.4,0.8,2.2,1.2c3.5,1.7,5.3,2.6,8.7,4.6c0.7,0.4,1.2,0.6,1.6,0.8c0.3,0.1,0.6,0.2,0.6,0.2c0.1,0.1,0.1,0.3-0.1,0.6
				c-0.3,0.5-1.4,2.2-1.8,2.8c-0.2,0.2-0.3,0.4-0.4,0.3c-0.2-0.1-0.1-0.2,0.1-0.6c0.1-0.1,0.1-0.2,0.1-0.3c0.3-0.7,0.2-1.7-1.7-2.8
				c-1.1-0.6-1.6-1-2.7-1.6c-2.2,4.1-3.4,6.2-5.6,10.3c-1.3,2.3-2.3,4.3-2.8,5.4c-0.3,0.7-0.5,1.3,0,1.8c0.2,0.2,0.6,0.5,0.9,0.6
				c0.2,0.1,0.2,0.2,0.2,0.4c-0.1,0.2-0.3,0.2-0.5,0.1c-1.2-0.7-2.3-1.4-2.8-1.6c-0.4-0.2-1.6-0.7-2.4-1.1c-0.2-0.1-0.3-0.3-0.2-0.4
				c0.1-0.1,0.2-0.2,0.4-0.1c0.3,0.1,0.5,0.2,0.7,0.2c0.4,0.1,0.8-0.4,1.3-1.1c0.6-1,1.7-3,2.9-5.4C707,326.3,708,324.2,710.2,320z"
				/>
			<path class="st6" d="M709.3,340.4c0.4-0.6,1.2-1.3,2-0.8c0.6,0.4,0.8,1.3,0.2,2.1s-1.4,1.3-2.1,0.8
				C708.7,342.1,708.8,341.1,709.3,340.4z"/>
			<path class="st6" d="M717.7,343.5c-1.3,1.8-1.5,2.6-1.3,3c0.2,0.4,0.5,0.6,0.8,0.8c0.2,0.1,0.3,0.3,0.1,0.4
				c-0.1,0.2-0.3,0.1-0.6-0.1c-1.1-0.8-1.7-1.4-2.1-1.6c-0.2-0.1-1-0.6-1.9-1.2c-0.2-0.2-0.4-0.3-0.2-0.5c0.1-0.1,0.2-0.1,0.4,0
				c0.2,0.2,0.6,0.4,0.9,0.4c0.6,0.1,1.1-0.5,2.6-2.5c4-5.5,5.9-8.3,9.9-13.8c0.3-0.5,0.6-0.8,0.8-0.6c0.2,0.2,0.2,0.6,0.2,1.3
				c0,0.5,0.4,6.5,0.4,11.9c0,2.5-0.4,7.7-0.4,8.3c0,0,0.1,0,0.1,0.1c3.4-3.9,5-5.9,8.4-9.8c1.1-1.3,1.3-1.9,1.1-2.5
				c-0.2-0.4-0.6-0.8-0.9-1c-0.2-0.2-0.3-0.3-0.1-0.5c0.1-0.2,0.4,0,0.7,0.2c1,0.9,1.9,1.8,2.3,2.1c0.2,0.2,1,0.8,1.9,1.7
				c0.2,0.2,0.4,0.4,0.2,0.6c-0.1,0.1-0.3,0.1-0.5-0.1c-0.2-0.2-0.3-0.3-0.6-0.5c-0.7-0.3-1.2,0-2.3,1.2c-5,5.3-7.4,7.9-12.4,13.2
				c-0.4,0.5-0.7,0.6-0.8,0.5c-0.2-0.2-0.1-0.6-0.1-1c0.2-2.2,0.5-6.9,0.4-10.7c0-4-0.1-8.4-0.1-9.1c0,0,0,0-0.1,0
				C721.8,337.6,720.4,339.6,717.7,343.5z"/>
			<path class="st6" d="M739.5,345c1.6-1.6,4.7-2.7,7.4,0.2c2.3,2.4,2.2,5.2-0.2,7.2c-2.3,2-5.4,2-7.5-0.2
				C736.9,349.7,737.8,346.8,739.5,345z M746,345.6c-0.8-0.9-2.5-1.3-4.7,0.9c-1.7,1.7-2.3,4.2-1.1,5.5c0.6,0.6,2.1,1.5,4.7-0.9
				C746.9,349.3,747.3,347,746,345.6z"/>
			<path class="st6" d="M735.5,365.3c0-0.4,0.1-0.6,0.4-0.8c1-0.9,2.3-1.8,2.9-2.2c0.3-0.2,0.5-0.3,0.6-0.2c0.1,0.1,0,0.3-0.2,0.4
				c-1.4,1.2-2.2,3.3-0.8,5.1c1.4,1.8,3.7,2.4,6.4,0.4c3.1-2.2,2.4-5.4,1.9-6.5c-0.3-0.6-0.3-0.8-0.1-0.9c0.2-0.1,0.4-0.1,0.6,0.1
				c0.9,0.7,3.6,2.2,6.3,0.2c1-0.7,2.4-2.8,0.7-4.9c-1.3-1.7-3.3-2-4.6-1c-0.3,0.2-0.4,0.2-0.5,0.1c-0.1-0.1,0-0.2,0.2-0.4
				c0.6-0.6,1.6-1.5,2.1-2c0.2-0.2,0.3-0.2,0.6-0.1c0.9,0.4,2.4,1.3,3.7,3.1c3.1,4.1,1.2,6.6,0.1,7.4c-2.3,1.6-5.5,0.5-6.4-0.1
				c0,0,0,0,0,0c0.7,1.8,0.8,4.9-2.1,6.8c-3.3,2.3-7.6,1.8-10.3-1.6C736.1,367.1,735.6,365.9,735.5,365.3z"/>
		</g>
	</g>
	<g>
		<g>
			<path class="st7" d="M600.4,548.5c0.8-1.7,1-2,1.1-2.4c0.2-0.4,0.1-0.6-0.2-0.9c-0.1-0.1-0.3-0.2-0.4-0.3
				c-0.1-0.1-0.2-0.1-0.2-0.2c0-0.1,0.1-0.1,0.3,0c0.6,0.3,1.4,0.7,1.6,0.8c0.4,0.2,1.3,0.6,1.7,0.7c0.8,0.3,1.5,0.8,2,1.4
				c0.2,0.4,0.5,1.1,0.2,1.9c-0.4,0.9-2.5,1.6-2.7,1.9c-0.2,0.4,1,3.2,1.5,4.2c0.4,1,1,1.3,1.1,1.4c0.1,0.1,0.2,0.1,0.4,0.2
				c0.1,0,0.1,0.1,0.1,0.2c0,0.1-0.1,0.1-0.3,0c-0.5-0.2-0.7-0.3-1.2-0.5c-0.7-0.3-1-0.5-1.3-0.8c-0.4-0.5-0.7-1.2-1-2.4
				c-0.2-0.8-0.5-1.9-0.6-2.1c0-0.1-0.1-0.1-0.2-0.2c-0.4-0.2-0.6-0.3-1.1-0.5c-0.1,0-0.1,0-0.1,0c0,0.1,0,0.1-0.1,0.2
				c-0.5,1.1-0.9,2-1,2.5c-0.1,0.3-0.1,0.6,0.2,0.9c0.2,0.1,0.5,0.3,0.6,0.3c0.1,0,0.1,0.1,0.1,0.2c0,0.1-0.1,0.1-0.3,0
				c-0.7-0.3-1.7-0.8-1.9-0.9c-0.2-0.1-1.1-0.5-1.6-0.7c-0.2-0.1-0.2-0.2-0.2-0.2c0-0.1,0.1-0.1,0.2,0c0.2,0.1,0.4,0.1,0.5,0.2
				c0.3,0.1,0.5-0.1,0.7-0.4c0.3-0.4,0.7-1.3,1.2-2.4C599.9,549.7,600.1,549.3,600.4,548.5z M601.5,550c-0.1,0.1-0.1,0.2,0,0.3
				c0.2,0.2,0.6,0.4,0.9,0.5c0.5,0.2,0.7,0.3,1,0.2c0.5-0.1,1.1-0.5,1.5-1.4c0.7-1.6-0.2-2.6-0.9-2.9c-0.3-0.1-0.5-0.2-0.7-0.2
				c-0.1,0-0.1,0-0.2,0.1C602.4,548,602.1,548.7,601.5,550z"/>
			<path class="st7" d="M608,552.9c0.8-2,3.1-4,6.8-2.7c3,1,4.5,3.3,3.7,6c-0.8,2.7-3.6,4.3-6.9,3.2
				C607.7,558.1,607.2,555,608,552.9z M616.5,556.1c0.8-2.7-0.3-4.8-2.3-5.5c-1.4-0.5-3.3-0.3-4.4,2.6c-0.9,2.4-0.1,4.9,2.4,5.8
				C613.2,559.3,615.4,559.6,616.5,556.1z"/>
			<path class="st7" d="M621.4,556.1c0.5-1.8,0.6-2.2,0.7-2.6c0.1-0.4,0-0.6-0.4-0.8c-0.1,0-0.3-0.1-0.5-0.2c-0.1,0-0.2-0.1-0.2-0.2
				s0.1-0.1,0.3,0c0.7,0.2,1.4,0.4,1.7,0.5c0.6,0.2,1.1,0.2,1.5,0.3c2.3,0.5,2.4,1.8,2.3,2.4c-0.2,1-1.8,1.8-1.8,1.8
				c0,0.1,2.1,1.7,1.8,3.2c-0.3,1.3-1.7,2.4-4.2,1.9c-0.2,0-0.6-0.2-0.9-0.3c-0.4-0.1-0.8-0.2-1-0.3c-0.1,0-0.5-0.1-0.8-0.2
				c-0.3-0.1-0.7-0.2-0.9-0.2c-0.2,0-0.3-0.1-0.2-0.2c0-0.1,0.1-0.1,0.2,0c0.2,0.1,0.4,0.1,0.5,0.1c0.3,0,0.4-0.2,0.6-0.6
				c0.2-0.5,0.5-1.4,0.7-2.5C621,557.4,621.1,557,621.4,556.1z M622.8,556.7c0,0.1,0,0.1,0.1,0.2c0.1,0.1,0.3,0.1,0.6,0.2
				c0.4,0.1,0.7,0.1,1,0c0.4-0.2,0.7-0.6,0.8-1.2c0.2-0.8-0.1-2-1.1-2.3c-0.2,0-0.3-0.1-0.4-0.1c-0.1,0-0.1,0-0.2,0.2
				C623.3,554.9,623.1,555.5,622.8,556.7z M624.3,558.1c-0.2-0.2-0.5-0.4-1-0.5c-0.2-0.1-0.4-0.1-0.6-0.1c-0.1,0-0.1,0-0.1,0.1
				c-0.3,1.1-0.4,1.7-0.7,2.9c-0.2,0.8-0.2,1,0.2,1.3c0.3,0.2,0.6,0.3,0.9,0.4c0.6,0.1,1.7,0.1,2-1.2
				C625.2,560.1,625.2,559,624.3,558.1z"/>
			<path class="st7" d="M630.2,558.1c0.3-1.9,0.4-2.2,0.5-2.6c0.1-0.4,0-0.6-0.4-0.8c-0.1,0-0.3-0.1-0.5-0.1c-0.1,0-0.2-0.1-0.2-0.2
				c0-0.1,0.1-0.1,0.3-0.1c0.3,0.1,0.7,0.1,1,0.2c0.3,0.1,0.6,0.1,0.8,0.2c0.4,0.1,2.9,0.5,3.2,0.5s0.5,0,0.6,0c0.1,0,0.1,0,0.2,0
				c0.1,0,0.1,0.1,0.1,0.1c0,0.1-0.1,0.2-0.2,0.8c0,0.1-0.1,0.7-0.2,0.8c0,0.1-0.1,0.1-0.1,0.1c-0.1,0-0.1-0.1-0.1-0.2
				c0-0.1,0-0.3,0-0.5c-0.1-0.2-0.2-0.4-0.8-0.6c-0.2-0.1-1.5-0.3-1.8-0.3c-0.1,0-0.1,0-0.1,0.1c-0.2,1.2-0.3,1.9-0.5,3.1
				c0,0.1,0,0.1,0.1,0.1c0.3,0,1.8,0.3,2.1,0.3c0.3,0,0.5,0,0.7-0.1c0.1-0.1,0.2-0.1,0.2-0.1c0.1,0,0.1,0,0.1,0.1
				c0,0.1-0.1,0.3-0.2,0.9c-0.1,0.2-0.2,0.7-0.2,0.8c0,0.1,0,0.2-0.2,0.2c-0.1,0-0.1-0.1-0.1-0.1c0-0.1,0-0.3,0-0.5
				c0-0.3-0.2-0.5-0.7-0.6c-0.2-0.1-1.5-0.3-1.9-0.3c-0.1,0-0.1,0-0.1,0.1c-0.1,0.4-0.1,0.6-0.2,1c-0.1,0.4-0.3,1.5-0.3,1.9
				c-0.1,0.8,0.1,1.1,1.5,1.3c0.4,0.1,0.9,0.1,1.3,0c0.4-0.1,0.6-0.3,0.7-0.8c0-0.1,0.1-0.2,0.2-0.2c0.1,0,0.1,0.1,0.1,0.2
				c0,0.3-0.3,1.1-0.4,1.3c-0.1,0.3-0.3,0.3-0.8,0.2c-1-0.2-1.8-0.3-2.4-0.4s-1-0.2-1.4-0.3c-0.1,0-0.5-0.1-0.8-0.1
				c-0.3-0.1-0.7-0.1-0.9-0.2c-0.2,0-0.3-0.1-0.2-0.2c0-0.1,0.1-0.1,0.2-0.1c0.2,0,0.4,0.1,0.5,0.1c0.3,0,0.4-0.3,0.5-0.6
				c0.2-0.5,0.3-1.5,0.5-2.6C630,559.4,630.1,559,630.2,558.1z"/>
			<path class="st7" d="M638.5,559.3c0.2-1.9,0.3-2.2,0.3-2.6c0-0.4-0.1-0.6-0.5-0.8c-0.1,0-0.3-0.1-0.5-0.1c-0.1,0-0.2-0.1-0.2-0.1
				s0.1-0.1,0.3-0.1c0.7,0.1,1.5,0.2,1.7,0.2c0.4,0,1.4,0.1,1.8,0.1c0.8,0.1,1.6,0.2,2.3,0.7c0.3,0.3,0.8,0.9,0.8,1.8
				c-0.1,0.9-1.9,2.3-1.9,2.7c-0.1,0.5,1.9,2.7,2.7,3.5c0.7,0.8,1.3,0.9,1.5,0.9c0.1,0,0.3,0,0.4,0.1c0.1,0,0.2,0,0.2,0.1
				c0,0.1-0.1,0.1-0.3,0.1c-0.5,0-0.8,0-1.3-0.1c-0.8,0-1.1-0.1-1.5-0.3c-0.6-0.3-1.1-0.9-1.7-2c-0.5-0.7-1-1.6-1.2-1.8
				c-0.1-0.1-0.1-0.1-0.2-0.1c-0.5-0.1-0.7-0.1-1.2-0.1c-0.1,0-0.1,0-0.1,0.1c0,0.1,0,0.1,0,0.2c-0.1,1.2-0.2,2.1-0.2,2.7
				c0,0.4,0.1,0.7,0.5,0.7c0.2,0,0.5,0.1,0.7,0.1c0.1,0,0.2,0.1,0.2,0.1c0,0.1-0.1,0.1-0.3,0.1c-0.8-0.1-1.8-0.2-2-0.2
				c-0.3,0-1.1-0.1-1.7-0.2c-0.2,0-0.3-0.1-0.3-0.2c0-0.1,0.1-0.1,0.2-0.1c0.2,0,0.4,0,0.5,0c0.3,0,0.4-0.3,0.5-0.6
				c0.1-0.5,0.2-1.5,0.4-2.6C638.3,560.7,638.4,560.2,638.5,559.3z M639.9,560.5c0,0.1,0,0.2,0.1,0.2c0.3,0.1,0.7,0.2,1,0.2
				c0.5,0,0.7,0,1-0.1c0.4-0.2,0.8-0.8,0.9-1.8c0.1-1.8-1-2.4-1.8-2.4c-0.3,0-0.5,0-0.7,0c-0.1,0-0.1,0.1-0.1,0.2
				C640.2,558.2,640.1,559,639.9,560.5z"/>
			<path class="st7" d="M649.7,557.2c-0.8,0-1.1,0-1.9,0c-0.7,0-1.1,0-1.3,0.3c-0.1,0.2-0.2,0.3-0.2,0.4c0,0.1-0.1,0.1-0.1,0.1
				c-0.1,0-0.1-0.1-0.1-0.2c0-0.2,0.3-1.3,0.3-1.4c0-0.2,0.1-0.2,0.2-0.2c0.1,0,0.2,0.1,0.5,0.2c0.4,0,0.9,0.1,1.3,0.1
				c2,0.1,3,0.1,5.1,0.1c0.4,0,0.7,0,0.9-0.1c0.2,0,0.3-0.1,0.3-0.1c0.1,0,0.1,0.1,0.1,0.3c0,0.3,0,1.1,0,1.4c0,0.1,0,0.2-0.1,0.2
				c-0.1,0-0.1-0.1-0.1-0.2c0-0.1,0-0.1,0-0.1c0-0.3-0.4-0.7-1.5-0.7c-0.6,0-1,0-1.6,0c0,2,0,3.1,0,5.1c0,1.1,0,2.1,0,2.7
				c0,0.3,0.1,0.6,0.5,0.7c0.2,0,0.5,0,0.7,0c0.2,0,0.2,0,0.2,0.1c0,0.1-0.1,0.1-0.3,0.1c-0.9,0-1.8,0-2.2-0.1c-0.3,0-1.2,0-1.7,0
				c-0.2,0-0.3-0.1-0.3-0.1c0-0.1,0.1-0.1,0.2-0.1c0.2,0,0.4,0,0.5,0c0.3,0,0.4-0.3,0.4-0.7c0.1-0.5,0.1-1.5,0.1-2.7
				C649.6,560.2,649.7,559.2,649.7,557.2z"/>
			<path class="st7" d="M655.7,561.2c-0.1-2.1,1.3-4.9,5.1-5.1c3.2-0.2,5.3,1.3,5.7,4.1c0.3,2.8-1.6,5.4-5.1,5.6
				C657.4,566.1,655.7,563.4,655.7,561.2z M664.7,560.8c-0.3-2.8-2.1-4.3-4.2-4.2c-1.5,0.1-3.1,1-3,4.1c0.1,2.6,1.8,4.6,4.4,4.4
				C662.9,565,665,564.4,664.7,560.8z"/>
			<path class="st7" d="M674.1,560.7c-0.1,0-0.1,0-0.1,0.1c-0.2,0.8-0.2,1.1-0.4,1.9c-0.1,0.3-0.1,0.6-0.1,0.8
				c0,0.2,0.2,0.4,0.6,0.3c0.1,0,0.1,0,0.2,0c0.2,0,0.2,0,0.2,0.1c0,0.1-0.1,0.1-0.2,0.2c-0.4,0.1-1,0.1-1.5,0.2
				c-0.1,0-0.9,0.2-1.6,0.3c-0.2,0-0.3,0-0.3-0.1c0-0.1,0-0.1,0.1-0.1c0.1,0,0.3-0.1,0.4-0.1c0.6-0.2,0.8-0.6,1-1.3
				c0.8-3.3,1.2-5,1.9-8.3c0.1-0.4,0.1-0.5,0.3-0.6c0.1,0,0.2,0.1,0.4,0.3c0.4,0.6,3.5,5.2,4.8,6.8c0.8,1,1.2,1.1,1.5,1.1
				c0.2,0,0.4-0.1,0.6-0.1c0.1,0,0.2,0,0.2,0.1c0,0.1-0.1,0.2-0.6,0.3c-0.5,0.1-1.5,0.4-2.6,0.6c-0.2,0-0.4,0.1-0.4,0
				c0-0.1,0-0.1,0.2-0.1c0.1,0,0.2-0.2,0.1-0.3c-0.7-0.9-1-1.4-1.6-2.4c0-0.1-0.1-0.1-0.1-0.1C675.9,560.4,675.3,560.5,674.1,560.7z
				 M676.7,559.6C676.8,559.6,676.8,559.5,676.7,559.6c-0.7-1.2-1-1.8-1.7-2.9c0,0,0-0.1-0.1-0.1c0,0-0.1,0.1-0.1,0.1
				c-0.2,1.3-0.4,1.9-0.6,3.2c0,0.1,0,0.1,0.1,0.1C675.3,559.9,675.7,559.8,676.7,559.6z"/>
			<path class="st7" d="M682.2,556.4c-0.5-1.8-0.6-2.2-0.7-2.6c-0.1-0.4-0.3-0.6-0.7-0.6c-0.1,0-0.3,0-0.5,0.1c-0.1,0-0.2,0-0.2-0.1
				c0-0.1,0.1-0.1,0.3-0.2c0.7-0.2,1.5-0.3,1.7-0.4c0.4-0.1,1.4-0.4,1.7-0.5c0.8-0.2,1.6-0.4,2.4-0.1c0.4,0.1,1.1,0.6,1.3,1.4
				c0.3,0.9-0.9,2.8-0.9,3.2c0.1,0.5,2.8,1.8,3.8,2.3c1,0.5,1.5,0.4,1.7,0.3c0.2,0,0.3-0.1,0.4-0.1c0.1,0,0.2,0,0.2,0
				c0,0.1-0.1,0.2-0.2,0.2c-0.5,0.2-0.8,0.3-1.3,0.4c-0.7,0.2-1.1,0.3-1.5,0.2c-0.7-0.1-1.3-0.5-2.3-1.2c-0.7-0.5-1.6-1.1-1.8-1.3
				c-0.1-0.1-0.2,0-0.3,0c-0.5,0.1-0.7,0.2-1.1,0.3c-0.1,0-0.1,0.1-0.1,0.1c0,0.1,0,0.1,0,0.2c0.3,1.1,0.6,2.1,0.8,2.6
				c0.1,0.3,0.3,0.6,0.7,0.5c0.2,0,0.5-0.1,0.7-0.1c0.1,0,0.2,0,0.2,0.1c0,0.1-0.1,0.1-0.2,0.2c-0.8,0.2-1.8,0.4-2,0.5
				c-0.3,0.1-1.1,0.3-1.6,0.5c-0.2,0-0.3,0-0.3-0.1c0-0.1,0-0.1,0.2-0.2c0.2,0,0.4-0.1,0.5-0.2c0.3-0.1,0.3-0.4,0.2-0.8
				c-0.1-0.5-0.3-1.5-0.6-2.6C682.5,557.6,682.4,557.2,682.2,556.4z M684,556.9c0,0.1,0.1,0.2,0.2,0.2c0.3,0,0.7-0.1,1-0.2
				c0.5-0.1,0.7-0.2,0.9-0.5c0.3-0.4,0.5-1,0.2-2c-0.5-1.7-1.8-1.8-2.6-1.6c-0.3,0.1-0.5,0.2-0.6,0.2c-0.1,0-0.1,0.1-0.1,0.2
				C683.4,554.7,683.6,555.4,684,556.9z"/>
			<path class="st7" d="M694.2,555c0.5,1.5,0.8,2.3,1.2,2.4c0.3,0.1,0.7,0.1,1.7-0.3c0.7-0.3,1.2-0.5,1.4-0.9
				c0.1-0.2,0.1-0.6,0.1-0.8c0-0.1,0-0.2,0.1-0.2c0.1,0,0.1,0,0.2,0.2c0.1,0.1,0.3,1,0.3,1.4c0,0.3,0,0.4-0.7,0.6
				c-0.9,0.4-1.6,0.6-2.2,0.8c-0.6,0.2-1.1,0.3-1.6,0.5c-0.1,0.1-0.4,0.2-0.7,0.3c-0.3,0.1-0.6,0.3-0.9,0.3c-0.2,0.1-0.3,0-0.3,0
				c0-0.1,0-0.1,0.2-0.2c0.2-0.1,0.3-0.1,0.5-0.2c0.2-0.1,0.2-0.4,0.2-0.8c-0.1-0.5-0.4-1.4-0.8-2.5c-0.3-0.8-0.4-1.2-0.7-2.1
				c-0.6-1.8-0.7-2.1-0.9-2.5c-0.2-0.4-0.3-0.5-0.8-0.5c-0.1,0-0.3,0-0.4,0.1c-0.1,0-0.2,0-0.2,0c0-0.1,0-0.1,0.2-0.2
				c0.6-0.2,1.4-0.4,1.7-0.5c0.3-0.1,1.2-0.5,1.6-0.6c0.2-0.1,0.3-0.1,0.3,0c0,0.1,0,0.1-0.2,0.2c-0.1,0-0.3,0.1-0.5,0.2
				c-0.3,0.2-0.3,0.4-0.2,0.8c0.1,0.4,0.2,0.7,0.9,2.5C693.7,553.7,693.9,554.1,694.2,555z"/>
			<path class="st7" d="M699.3,547.4c-0.7,0.3-1.1,0.5-1.8,0.8c-0.7,0.3-1,0.5-1,0.8c-0.1,0.2-0.1,0.4,0,0.5c0,0.1,0,0.2-0.1,0.2
				c-0.1,0-0.1,0-0.2-0.1c-0.1-0.2-0.3-1.3-0.3-1.4c0-0.2,0-0.3,0.1-0.3c0.1,0,0.3,0,0.6-0.1c0.4-0.1,0.8-0.3,1.2-0.4
				c1.9-0.8,2.8-1.2,4.7-2.1c0.4-0.2,0.6-0.3,0.8-0.4c0.2-0.1,0.2-0.2,0.3-0.2c0.1,0,0.1,0,0.2,0.2c0.1,0.2,0.5,1,0.6,1.3
				c0,0.1,0,0.2,0,0.2c-0.1,0-0.1,0-0.2-0.2c0,0,0-0.1-0.1-0.1c-0.2-0.3-0.6-0.4-1.7,0c-0.6,0.3-0.9,0.4-1.5,0.7
				c0.8,1.9,1.3,2.8,2.1,4.7c0.5,1,0.9,1.9,1.2,2.4c0.2,0.3,0.4,0.5,0.8,0.4c0.2-0.1,0.5-0.2,0.7-0.3c0.1-0.1,0.2-0.1,0.2,0
				c0,0.1,0,0.2-0.2,0.2c-0.8,0.4-1.7,0.7-2,0.9c-0.3,0.1-1.1,0.5-1.6,0.7c-0.2,0.1-0.3,0.1-0.3,0c0-0.1,0-0.1,0.2-0.2
				c0.2-0.1,0.3-0.2,0.4-0.2c0.2-0.2,0.2-0.4,0.1-0.8c-0.1-0.5-0.5-1.4-1-2.5C700.5,550.2,700.1,549.3,699.3,547.4z"/>
		</g>
	</g>
</g>
</svg>
